<svg width="39" height="39" viewBox="0 0 39 39" fill="none" xmlns="http://www.w3.org/2000/svg">
<rect width="39" height="39" fill="white"/>
<path d="M20.2142 19.8276L28.4079 13.469C28.3979 12.2531 28.0482 11.0643 27.3983 10.0366C26.7485 9.00892 25.8244 8.18335 24.7302 7.65305C23.6361 7.12275 22.4155 6.90885 21.2062 7.03547C19.9969 7.16209 18.8471 7.62421 17.8865 8.36966C16.9259 9.11511 16.1928 10.1142 15.7699 11.2542C15.3471 12.3942 15.2513 13.6297 15.4934 14.8212C15.7354 16.0128 16.3057 17.113 17.1399 17.9976C17.9741 18.8822 19.0389 19.516 20.2142 19.8276V19.8276Z" fill="#CEDD37"/>
<path d="M11.473 18.0593L15.2181 20.9675C15.765 20.0259 15.9857 18.93 15.8459 17.8501C15.7062 16.7701 15.2137 15.7666 14.445 14.9953C13.6764 14.2239 12.6745 13.728 11.5951 13.5844C10.5156 13.4409 9.41903 13.6577 8.4755 14.2014C7.53197 14.745 6.79433 15.585 6.37716 16.5908C5.95998 17.5967 5.8866 18.7122 6.16841 19.764C6.45022 20.8159 7.07144 21.7452 7.93563 22.4078C8.79981 23.0703 9.85858 23.429 10.9475 23.4281C11.1231 23.4278 11.2986 23.4176 11.473 23.3975V18.0593Z" fill="#08BCD3"/>
<path d="M16.9835 22.3353L11.4729 18.0592V26.6115L16.9835 22.3353Z" stroke="#E92064" stroke-width="2.64409" stroke-linejoin="bevel"/>
<path d="M16.9836 22.3354L32.0085 33.996V10.6747L16.9836 22.3354Z" stroke="#E92064" stroke-width="2.64409" stroke-linejoin="bevel"/>
</svg>
