<svg width="39" height="39" viewBox="0 0 39 39" fill="none" xmlns="http://www.w3.org/2000/svg">
<rect width="39" height="39" fill="white"/>
<path d="M22.8327 27.5215C26.0082 27.5215 28.5824 24.9473 28.5824 21.7718C28.5824 18.5963 26.0082 16.0221 22.8327 16.0221C19.6572 16.0221 17.083 18.5963 17.083 21.7718C17.083 24.9473 19.6572 27.5215 22.8327 27.5215Z" fill="#8F4198"/>
<path d="M12.2759 29.7764C14.7404 29.7764 16.7383 27.7785 16.7383 25.314C16.7383 22.8495 14.7404 20.8516 12.2759 20.8516C9.81138 20.8516 7.81348 22.8495 7.81348 25.314C7.81348 27.7785 9.81138 29.7764 12.2759 29.7764Z" fill="#CEDD37"/>
<path d="M10.9832 13.5643L17.8645 4" stroke="#08BCD3" stroke-width="2.64409" stroke-linejoin="bevel"/>
<path d="M13.4797 20.0897L20.3583 10.5226" stroke="#08BCD3" stroke-width="2.64409" stroke-linejoin="bevel"/>
<path d="M27.1478 35.1535L32.5528 26.4038H4.99976L10.4047 35.1535H27.1478Z" fill="white" stroke="#E92064" stroke-width="2.27987" stroke-linejoin="bevel"/>
</svg>
