<svg width="39" height="39" viewBox="0 0 39 39" fill="none" xmlns="http://www.w3.org/2000/svg">
<rect width="39" height="39" fill="white"/>
<path d="M24.6975 23.959C25.8845 23.959 26.8467 22.9968 26.8467 21.8098C26.8467 20.6229 25.8845 19.6606 24.6975 19.6606C23.5106 19.6606 22.5483 20.6229 22.5483 21.8098C22.5483 22.9968 23.5106 23.959 24.6975 23.959Z" fill="#08BCD3"/>
<path d="M18.5308 21.9267C19.2233 21.9267 19.7847 21.3653 19.7847 20.6728C19.7847 19.9802 19.2233 19.4188 18.5308 19.4188C17.8383 19.4188 17.2769 19.9802 17.2769 20.6728C17.2769 21.3653 17.8383 21.9267 18.5308 21.9267Z" fill="#B82D83"/>
<path d="M15.1277 27.6986C16.3147 27.6986 17.2769 26.7364 17.2769 25.5495C17.2769 24.3625 16.3147 23.4003 15.1277 23.4003C13.9408 23.4003 12.9785 24.3625 12.9785 25.5495C12.9785 26.7364 13.9408 27.6986 15.1277 27.6986Z" fill="#08BCD3"/>
<path d="M15.6864 16.7218C16.3728 16.7218 16.9292 16.1654 16.9292 15.479C16.9292 14.7926 16.3728 14.2362 15.6864 14.2362C15 14.2362 14.4436 14.7926 14.4436 15.479C14.4436 16.1654 15 16.7218 15.6864 16.7218Z" fill="#B82D83"/>
<path d="M22.3843 19.0962C24.8488 19.0962 26.8467 17.0983 26.8467 14.6338C26.8467 12.1693 24.8488 10.1714 22.3843 10.1714C19.9198 10.1714 17.9219 12.1693 17.9219 14.6338C17.9219 17.0983 19.9198 19.0962 22.3843 19.0962Z" fill="#CEDD37"/>
<path d="M9 23.9368V15.3845L14.5106 19.6607L9 23.9368Z" stroke="#E92064" stroke-width="2.64409" stroke-linejoin="bevel"/>
<path d="M20.0459 23.9591L29.5352 31.3214V8L25.9458 10.1714" stroke="#E92064" stroke-width="2.64409" stroke-linejoin="bevel"/>
</svg>
