<svg width="39" height="39" viewBox="0 0 39 39" fill="none" xmlns="http://www.w3.org/2000/svg">
<rect width="39" height="39" fill="white"/>
<path d="M15.3667 16.9563C16.5537 16.9563 17.5159 15.9941 17.5159 14.8071C17.5159 13.6202 16.5537 12.658 15.3667 12.658C14.1798 12.658 13.2175 13.6202 13.2175 14.8071C13.2175 15.9941 14.1798 16.9563 15.3667 16.9563Z" fill="#08BCD3"/>
<path d="M23.5631 13.4226C25.3366 13.4226 26.7744 11.9848 26.7744 10.2113C26.7744 8.43774 25.3366 7 23.5631 7C21.7895 7 20.3518 8.43774 20.3518 10.2113C20.3518 11.9848 21.7895 13.4226 23.5631 13.4226Z" fill="#B82D83"/>
<path d="M22.9405 23.732C25.405 23.732 27.4029 21.7341 27.4029 19.2696C27.4029 16.805 25.405 14.8071 22.9405 14.8071C20.4759 14.8071 18.478 16.805 18.478 19.2696C18.478 21.7341 20.4759 23.732 22.9405 23.732Z" fill="#CEDD37"/>
<path d="M14.5104 21.6273L8.99976 17.3512V25.9035L14.5104 21.6273Z" stroke="#E92064" stroke-width="2.64409" stroke-linejoin="bevel"/>
<path d="M14.5105 21.6273L29.5354 33.2879V9.96936" stroke="#E92064" stroke-width="2.64409" stroke-linejoin="bevel"/>
</svg>
