<svg width="39" height="39" viewBox="0 0 39 39" fill="none" xmlns="http://www.w3.org/2000/svg">
<rect width="39" height="39" fill="white"/>
<path d="M19.0491 19.505V34.174L33.2593 23.1472L19.0491 19.505Z" stroke="#E92064" stroke-width="2.64409" stroke-linejoin="bevel"/>
<path d="M19.049 19.505V5L5 15.9017L19.049 19.505Z" stroke="#E92064" stroke-width="2.64409" stroke-linejoin="bevel"/>
<path d="M19.0491 11.6255C20.3485 11.6243 21.6281 11.9449 22.7735 12.5586C23.9189 13.1723 24.8946 14.06 25.6134 15.1426" stroke="#E92064" stroke-width="2.64409" stroke-linejoin="bevel"/>
<path d="M22.1184 15.3929L26.9284 19.505L28.085 13.2826L22.1184 15.3929Z" fill="#E92064"/>
<path d="M19.049 27.3844C17.7493 27.385 16.4697 27.0639 15.3243 26.4497C14.1789 25.8356 13.2033 24.9474 12.4846 23.8645" stroke="#E92064" stroke-width="2.64409" stroke-linejoin="bevel"/>
<path d="M15.9795 23.6171L11.1695 19.505L10.0129 25.7246L15.9795 23.6171Z" fill="#E92064"/>
<path d="M11.4475 15.2065H16.9748L16.5439 16.4299L11.4475 15.2065Z" fill="#08BCD3"/>
<path d="M21.2927 22.6968V29.1249L27.5151 24.3344L21.2927 22.6968Z" fill="#08BCD3"/>
</svg>
