<svg width="39" height="39" viewBox="0 0 39 39" fill="none" xmlns="http://www.w3.org/2000/svg">
<rect width="39" height="39" fill="white"/>
<path d="M18.6609 30.967L14.3848 36.4776H22.937L18.6609 30.967Z" stroke="#E92064" stroke-width="2.64409" stroke-linejoin="bevel"/>
<path d="M18.6609 30.9671L30.3216 15.9395H7.00024L18.6609 30.9671Z" stroke="#E92064" stroke-width="2.64409" stroke-linejoin="bevel"/>
<path d="M22.2808 7.61235C22.2805 6.97126 22.1096 6.34179 21.7857 5.78851C21.4619 5.23523 20.9967 4.77805 20.4378 4.46385C19.879 4.14965 19.2467 3.98974 18.6057 4.00051C17.9647 4.01129 17.3381 4.19236 16.7901 4.52517C16.2422 4.85798 15.7926 5.33054 15.4875 5.89439C15.1824 6.45824 15.0328 7.09309 15.054 7.73384C15.0752 8.37459 15.2664 8.99818 15.608 9.54065C15.9497 10.0831 16.4295 10.525 16.9982 10.8209L15.2244 12.9839H22.1224L20.3374 10.8209C20.9239 10.5151 21.4153 10.0542 21.7579 9.48846C22.1006 8.92272 22.2815 8.27379 22.2808 7.61235V7.61235Z" fill="#CEDD37"/>
<path d="M18.6607 24.0802L22.1083 19.868H15.2131L18.6607 24.0802Z" fill="#8F4198"/>
</svg>
