<svg width="39" height="39" viewBox="0 0 39 39" fill="none" xmlns="http://www.w3.org/2000/svg">
<rect width="39" height="39" fill="white"/>
<path d="M29.6919 10.0259L31.0125 9L33.1395 10.051V29.8385L31.0125 30.8839L29.6919 29.858V10.0259Z" fill="#E92064"/>
<path d="M19.0712 23.5717C21.072 23.5717 22.694 21.9497 22.694 19.9489C22.694 17.9481 21.072 16.3262 19.0712 16.3262C17.0705 16.3262 15.4485 17.9481 15.4485 19.9489C15.4485 21.9497 17.0705 23.5717 19.0712 23.5717Z" fill="#CEDD37"/>
<path d="M27.1314 27.8701L24.4873 25.8182V14.063L27.1314 12.0111V27.8701Z" fill="#E92064"/>
<path d="M8.45038 29.8635L7.12695 30.8895L5 29.8385V10.0509L7.12973 9.0083L8.45038 10.0342V29.8635Z" fill="#E92064"/>
<path d="M11.011 12.0194L13.6551 14.0713V25.8265L11.011 27.8784V12.0194Z" fill="#E92064"/>
</svg>
