<?xml version="1.0" standalone="no"?>
<!DOCTYPE svg PUBLIC "-//W3C//DTD SVG 20010904//EN"
 "http://www.w3.org/TR/2001/REC-SVG-20010904/DTD/svg10.dtd">
<svg version="1.0" xmlns="http://www.w3.org/2000/svg"
 width="700.000000pt" height="700.000000pt" viewBox="0 0 700.000000 700.000000"
 preserveAspectRatio="xMidYMid meet">
<metadata>
Created by potrace 1.14, written by Peter Selinger 2001-2017
</metadata>
<g transform="translate(0.000000,700.000000) scale(0.100000,-0.100000)"
fill="#000000" stroke="none">
<path d="M1850 5654 c-80 -163 -146 -303 -148 -312 -1 -10 50 -85 115 -169 65
-83 174 -224 243 -313 69 -89 130 -167 135 -174 6 -6 39 -49 75 -96 36 -47 70
-92 77 -100 7 -8 152 -195 323 -415 170 -220 337 -434 370 -477 33 -42 63 -83
66 -92 4 -9 -9 -34 -33 -63 -53 -65 -112 -140 -218 -278 -103 -133 -280 -363
-298 -385 -7 -8 -41 -53 -77 -100 -36 -46 -73 -94 -82 -105 -14 -17 -200 -256
-265 -341 -12 -16 -116 -150 -231 -298 l-210 -270 50 -100 c27 -56 95 -194
151 -309 l101 -207 1606 0 1606 0 151 308 150 307 -20 30 c-12 17 -24 32 -27
35 -4 3 -43 53 -89 112 -45 60 -87 108 -92 108 -5 0 -9 6 -9 13 0 10 -31 52
-118 162 -4 6 -55 71 -112 145 -58 74 -109 140 -115 146 -5 6 -17 22 -25 34
-8 12 -20 28 -25 34 -9 9 -111 140 -319 411 -17 22 -42 54 -56 70 -14 17 -34
44 -45 59 -11 16 -25 33 -30 40 -6 6 -29 36 -53 66 -23 30 -45 60 -50 65 -4 6
-32 42 -62 80 -30 39 -80 103 -112 144 -32 40 -58 77 -58 81 0 5 39 57 185
245 13 17 65 84 116 150 51 66 116 149 144 185 29 36 247 317 485 625 239 308
436 562 439 565 4 3 15 19 27 35 l21 30 -150 308 -151 307 -1605 0 -1606 0
-145 -296z m2570 -470 c0 -1 -36 -48 -80 -105 -92 -120 -75 -98 -293 -378 -92
-119 -178 -229 -190 -245 -12 -16 -42 -55 -67 -87 -25 -31 -76 -98 -115 -148
-38 -50 -72 -91 -75 -91 -3 0 -30 33 -60 73 -30 39 -57 74 -60 77 -3 3 -19 23
-35 45 -16 22 -41 54 -55 71 -34 42 -48 60 -100 129 -25 33 -53 69 -62 80 -66
80 -438 566 -438 572 0 5 367 8 815 8 448 0 815 0 815 -1z m-795 -2340 c9 -14
25 -35 35 -47 10 -12 116 -148 235 -302 120 -154 228 -293 241 -310 119 -152
284 -366 284 -368 0 -1 -369 -2 -819 -2 -550 0 -817 3 -813 10 3 5 145 190
316 410 170 220 350 453 400 517 50 65 94 117 97 118 4 0 14 -12 24 -26z"/>
</g>
</svg>
