<svg width="250" height="44" viewBox="0 0 250 44" fill="none" xmlns="http://www.w3.org/2000/svg">
<path d="M106.681 36.2175C106.393 36.22 106.107 36.1625 105.843 36.0487C105.578 35.9348 105.339 35.7671 105.143 35.5563C104.934 35.3402 104.77 35.0848 104.661 34.8049C104.552 34.5251 104.499 34.2264 104.506 33.9261C104.49 33.3293 104.712 32.7505 105.122 32.3167C105.313 32.1043 105.547 31.9354 105.809 31.8213C106.071 31.7072 106.354 31.6507 106.64 31.6555C106.978 31.6739 107.308 31.7609 107.611 31.911C107.914 32.0611 108.184 32.2713 108.403 32.5288L108.765 32.1545C108.502 31.8514 108.178 31.6078 107.814 31.44C107.449 31.2722 107.053 31.184 106.652 31.1814C106.293 31.1757 105.936 31.247 105.606 31.3904C105.276 31.5339 104.981 31.7462 104.739 32.0131C104.239 32.5239 103.961 33.2114 103.966 33.9261C103.961 34.2846 104.028 34.6404 104.163 34.9726C104.298 35.3047 104.498 35.6064 104.752 35.8599C104.993 36.1262 105.289 36.3381 105.619 36.4814C105.949 36.6248 106.305 36.6965 106.665 36.6916C107.079 36.6872 107.487 36.591 107.86 36.4097C108.232 36.2285 108.56 35.9668 108.819 35.6436L108.465 35.3317C108.252 35.6023 107.982 35.8222 107.673 35.9754C107.365 36.1286 107.026 36.2113 106.681 36.2175ZM110.62 31.7511H112.899V36.571H113.41V31.7511H115.689V31.2854H110.62V31.7511ZM120.85 31.1606C120.404 31.1639 119.967 31.2868 119.584 31.5165C119.202 31.7461 118.888 32.0742 118.675 32.4664V31.2854H118.168V38.2303H118.675V35.4315C118.899 35.8095 119.217 36.1231 119.598 36.3417C119.979 36.5604 120.41 36.6766 120.85 36.6791C121.19 36.6845 121.528 36.6201 121.843 36.49C122.158 36.3598 122.442 36.1666 122.68 35.9222C122.938 35.6601 123.141 35.3478 123.275 35.0045C123.408 34.6612 123.471 34.2943 123.457 33.9261C123.475 33.5555 123.415 33.1853 123.281 32.8393C123.148 32.4933 122.942 32.1793 122.68 31.9175C122.444 31.6747 122.161 31.4824 121.849 31.3522C121.536 31.2221 121.201 31.1569 120.862 31.1606H120.85ZM122.875 33.9469C122.892 34.2498 122.848 34.553 122.746 34.8387C122.644 35.1244 122.485 35.3867 122.28 35.6103C122.09 35.8104 121.86 35.9682 121.605 36.0735C121.35 36.1788 121.076 36.2293 120.8 36.2217C120.518 36.2223 120.238 36.1654 119.979 36.0546C119.719 35.9438 119.485 35.7813 119.29 35.5771C119.076 35.3652 118.908 35.1114 118.797 34.8317C118.685 34.5519 118.632 34.2521 118.642 33.9511C118.632 33.6494 118.685 33.3489 118.796 33.0685C118.908 32.788 119.076 32.5336 119.29 32.3209C119.485 32.1174 119.72 31.9557 119.979 31.8456C120.239 31.7355 120.518 31.6793 120.8 31.6804C121.072 31.6733 121.343 31.7228 121.595 31.8259C121.847 31.929 122.075 32.0834 122.264 32.2793C122.471 32.502 122.631 32.7639 122.736 33.0496C122.84 33.3353 122.886 33.639 122.871 33.9427L122.875 33.9469ZM128.182 31.1897C127.53 31.1962 126.889 31.3512 126.306 31.643L126.493 32.088C127.006 31.8181 127.577 31.6755 128.157 31.6721C128.622 31.6439 129.081 31.7924 129.442 32.088C129.601 32.2438 129.724 32.4323 129.803 32.6406C129.882 32.8489 129.915 33.0718 129.899 33.294V33.5227C129.326 33.3719 128.736 33.295 128.144 33.294C127.556 33.2668 126.974 33.4254 126.481 33.7473C126.279 33.8857 126.116 34.0725 126.005 34.2904C125.895 34.5084 125.841 34.7506 125.849 34.9949C125.84 35.2334 125.892 35.4702 125.999 35.6833C126.107 35.8964 126.267 36.0787 126.464 36.2133C127.001 36.5798 127.659 36.7254 128.301 36.6201C128.943 36.5149 129.519 36.1667 129.911 35.6478V36.5294H130.406V33.269C130.422 32.9969 130.383 32.7244 130.29 32.4678C130.198 32.2113 130.055 31.976 129.87 31.7761C129.643 31.5688 129.376 31.4099 129.086 31.3091C128.796 31.2083 128.488 31.1677 128.182 31.1897ZM129.903 34.579C129.911 34.8078 129.863 35.0351 129.764 35.2414C129.664 35.4478 129.517 35.6271 129.333 35.7642C128.93 36.0766 128.43 36.2397 127.92 36.2258C127.532 36.2376 127.152 36.1206 126.838 35.8931C126.695 35.7967 126.578 35.6658 126.499 35.5124C126.42 35.3591 126.381 35.1882 126.385 35.0157V34.9949C126.381 34.82 126.42 34.6467 126.499 34.4906C126.578 34.3346 126.695 34.2006 126.838 34.1008C127.221 33.8576 127.671 33.7412 128.123 33.7681C128.728 33.772 129.33 33.8516 129.916 34.0051L129.903 34.579ZM132.561 31.7387H134.839V36.571H135.347V31.7511H137.651V31.2854H132.561V31.7387ZM141.888 31.1481C141.55 31.1422 141.214 31.2111 140.905 31.3498C140.596 31.4885 140.321 31.6937 140.1 31.9508C139.621 32.4872 139.364 33.1861 139.381 33.9053C139.363 34.276 139.422 34.6462 139.554 34.9931C139.686 35.3401 139.887 35.6563 140.146 35.9222C140.382 36.1696 140.666 36.3659 140.98 36.4989C141.295 36.632 141.634 36.699 141.976 36.6957C142.39 36.6953 142.799 36.6064 143.177 36.435C143.554 36.2636 143.89 36.0136 144.163 35.7018L143.81 35.3899C143.584 35.6492 143.305 35.8575 142.993 36.0009C142.68 36.1443 142.34 36.2196 141.996 36.2217C141.736 36.2249 141.477 36.1765 141.235 36.0795C140.993 35.9824 140.773 35.8385 140.587 35.6561C140.175 35.2567 139.936 34.7117 139.921 34.1382H144.304C144.309 34.069 144.309 33.9995 144.304 33.9303C144.331 33.2114 144.095 32.5075 143.639 31.9508C143.426 31.695 143.158 31.491 142.855 31.3541C142.551 31.2172 142.221 31.151 141.888 31.1606V31.1481ZM139.917 33.6433C139.943 33.0971 140.162 32.5781 140.537 32.1795C140.704 31.9931 140.91 31.8445 141.139 31.7435C141.369 31.6424 141.617 31.5911 141.868 31.5931C142.122 31.58 142.376 31.6266 142.609 31.7292C142.842 31.8317 143.048 31.9873 143.211 32.1836C143.549 32.6129 143.743 33.1385 143.764 33.6849L139.917 33.6433ZM147.041 36.5544H147.548V31.7511H150.804V31.2854H147.041V36.5544ZM153.832 35.8266V31.2521H153.325V36.571H153.832L157.491 32.0214V36.571H157.999V31.2854H157.491L153.832 35.8266ZM164.802 34.1091C164.262 34.2693 163.702 34.3519 163.139 34.3544C162.685 34.3925 162.233 34.2688 161.862 34.0051C161.713 33.8526 161.598 33.6696 161.527 33.4685C161.455 33.2675 161.427 33.0533 161.446 32.8407V31.2854H160.939V32.8906C160.939 34.2047 161.654 34.8618 163.085 34.8618C163.66 34.8486 164.231 34.7648 164.786 34.6123V36.571H165.293V31.2854H164.786L164.802 34.1091ZM170.624 31.144C170.286 31.1375 169.95 31.2061 169.64 31.3448C169.331 31.4836 169.057 31.6891 168.836 31.9466C168.354 32.4816 168.095 33.1811 168.113 33.9011C168.099 34.2664 168.16 34.6306 168.291 34.9716C168.423 35.3127 168.622 35.6233 168.878 35.8848C169.113 36.1334 169.397 36.3305 169.712 36.4636C170.027 36.5968 170.366 36.6631 170.708 36.6583C171.122 36.6579 171.531 36.569 171.909 36.3976C172.286 36.2262 172.622 35.9762 172.895 35.6644L172.542 35.3525C172.315 35.6112 172.036 35.819 171.724 35.9624C171.411 36.1057 171.072 36.1813 170.728 36.1842C170.201 36.19 169.693 35.9866 169.314 35.6187C168.904 35.2186 168.667 34.6737 168.653 34.1008H173.041C173.046 34.0315 173.046 33.962 173.041 33.8928C173.066 33.1735 172.828 32.4697 172.371 31.9133C172.156 31.6653 171.887 31.4688 171.586 31.3385C171.284 31.2083 170.957 31.1474 170.629 31.1606L170.624 31.144ZM168.653 33.6392C168.683 33.1081 168.896 32.6038 169.256 32.2127C169.424 32.0259 169.63 31.877 169.861 31.7759C170.091 31.6748 170.34 31.6238 170.591 31.6264C170.845 31.6133 171.098 31.6599 171.331 31.7625C171.563 31.865 171.769 32.0207 171.93 32.2169C172.27 32.6346 172.47 33.1478 172.504 33.6849L168.653 33.6392ZM178.139 36.1801C177.851 36.1841 177.564 36.1273 177.299 36.0134C177.034 35.8994 176.796 35.731 176.6 35.5189C176.392 35.3027 176.228 35.0473 176.119 34.7675C176.01 34.4877 175.957 34.189 175.964 33.8887C175.948 33.2919 176.169 32.7131 176.58 32.2793C176.77 32.0667 177.005 31.8976 177.267 31.7835C177.528 31.6694 177.812 31.613 178.097 31.6181C178.435 31.6365 178.766 31.7234 179.069 31.8736C179.372 32.0237 179.641 32.2339 179.861 32.4914L180.223 32.1171C179.96 31.814 179.636 31.5704 179.271 31.4025C178.907 31.2347 178.511 31.1466 178.11 31.144C177.75 31.1383 177.393 31.2096 177.064 31.353C176.734 31.4964 176.438 31.7088 176.197 31.9757C175.943 32.2316 175.743 32.5355 175.608 32.8697C175.473 33.2039 175.406 33.5616 175.411 33.9219C175.406 34.2804 175.473 34.6363 175.608 34.9684C175.743 35.3006 175.943 35.6023 176.197 35.8557C176.439 36.122 176.734 36.3339 177.064 36.4773C177.394 36.6207 177.75 36.6923 178.11 36.6874C178.524 36.6831 178.932 36.5868 179.305 36.4056C179.677 36.2243 180.005 35.9627 180.264 35.6395L179.911 35.3276C179.7 35.5968 179.432 35.8161 179.126 35.97C178.821 36.1238 178.485 36.2083 178.143 36.2175L178.139 36.1801ZM187.459 31.2479H186.806L184.643 33.6849H183.47V31.2854H182.963V36.571H183.47V34.134H184.643L186.835 36.571H187.508L185.072 33.8637L187.459 31.2479ZM191.804 31.1648C191.151 31.1712 190.509 31.3262 189.925 31.6181L190.112 32.063C190.625 31.7931 191.195 31.6505 191.775 31.6472C192.241 31.619 192.7 31.7675 193.06 32.063C193.219 32.2188 193.343 32.4074 193.422 32.6156C193.501 32.8239 193.534 33.0469 193.518 33.269V33.4978C192.946 33.3469 192.358 33.27 191.767 33.269C191.179 33.2422 190.597 33.4007 190.103 33.7223C189.902 33.8607 189.739 34.0475 189.628 34.2655C189.518 34.4835 189.464 34.7257 189.471 34.9699C189.463 35.2085 189.515 35.4453 189.622 35.6583C189.73 35.8714 189.89 36.0538 190.087 36.1884C190.624 36.5548 191.282 36.7005 191.924 36.5952C192.566 36.4899 193.142 36.1417 193.534 35.6228V36.5044H194.033V33.269C194.048 32.9966 194.008 32.724 193.915 32.4675C193.822 32.211 193.679 31.9758 193.493 31.7761C193.267 31.5691 193.001 31.4104 192.711 31.3096C192.421 31.2088 192.114 31.168 191.808 31.1897L191.804 31.1648ZM193.522 34.554C193.535 34.7863 193.49 35.0182 193.392 35.2293C193.294 35.4403 193.146 35.624 192.96 35.7642C192.555 36.0766 192.054 36.2397 191.542 36.2258C191.155 36.2376 190.775 36.1206 190.461 35.8931C190.319 35.7959 190.203 35.6648 190.124 35.5117C190.044 35.3585 190.005 35.188 190.008 35.0157V34.9949C190.004 34.8196 190.044 34.6461 190.123 34.49C190.203 34.3339 190.321 34.2001 190.465 34.1008C190.848 33.8576 191.298 33.7412 191.75 33.7681C192.355 33.772 192.957 33.8516 193.543 34.0051L193.522 34.554ZM197.439 31.7012C197.264 31.837 197.122 32.0117 197.025 32.2116C196.928 32.4115 196.879 32.6311 196.882 32.8532C196.87 33.2317 197.006 33.6 197.26 33.8804C197.546 34.1749 197.926 34.3615 198.333 34.4085L196.67 36.5252H197.323L198.907 34.4459H200.949V36.5252H201.461V31.2854H198.907C198.381 31.2584 197.862 31.419 197.443 31.7387L197.439 31.7012ZM200.966 34.0134H198.886C198.502 34.0349 198.123 33.9249 197.809 33.7015C197.679 33.6056 197.574 33.4802 197.501 33.3357C197.429 33.1911 197.392 33.0314 197.394 32.8698C197.389 32.7077 197.425 32.5469 197.497 32.4018C197.57 32.2567 197.677 32.1318 197.809 32.0381C198.118 31.8139 198.493 31.7023 198.874 31.722H200.953L200.966 34.0134ZM211.362 36.1801C211.074 36.1841 210.788 36.1273 210.523 36.0134C210.257 35.8994 210.019 35.731 209.824 35.5189C209.407 35.0936 209.176 34.5212 209.179 33.9261C209.165 33.3288 209.387 32.7501 209.799 32.3167C209.989 32.1041 210.224 31.935 210.486 31.8209C210.748 31.7068 211.031 31.6504 211.317 31.6555C211.654 31.6739 211.985 31.7609 212.288 31.911C212.591 32.0611 212.861 32.2713 213.08 32.5288L213.442 32.1545C213.179 31.8509 212.854 31.6069 212.488 31.4391C212.123 31.2713 211.727 31.1834 211.325 31.1814C210.965 31.1768 210.609 31.2485 210.279 31.3919C209.949 31.5353 209.654 31.747 209.412 32.0131C209.159 32.2698 208.96 32.5739 208.826 32.908C208.692 33.242 208.625 33.5994 208.63 33.9594C208.625 34.3175 208.692 34.6729 208.826 35.005C208.961 35.337 209.16 35.6389 209.412 35.8931C209.654 36.1588 209.95 36.3703 210.279 36.5136C210.609 36.657 210.965 36.7289 211.325 36.7249C211.74 36.7211 212.149 36.6251 212.522 36.4439C212.895 36.2626 213.224 36.0006 213.483 35.6769L213.13 35.365C212.916 35.6263 212.648 35.8379 212.344 35.9851C212.04 36.1324 211.708 36.2116 211.371 36.2175L211.362 36.1801ZM218.162 31.1606C217.823 31.1544 217.487 31.2231 217.178 31.3619C216.869 31.5006 216.594 31.706 216.373 31.9632C215.892 32.4986 215.635 33.1982 215.654 33.9178C215.641 34.2826 215.701 34.6464 215.832 34.9873C215.963 35.3281 216.161 35.6391 216.415 35.9014C216.651 36.1488 216.935 36.3451 217.25 36.4782C217.564 36.6112 217.903 36.6782 218.245 36.675C218.659 36.6745 219.069 36.5856 219.446 36.4142C219.823 36.2428 220.159 35.9928 220.432 35.681L220.079 35.3691C219.853 35.628 219.574 35.836 219.261 35.9794C218.949 36.1228 218.609 36.1982 218.266 36.2009C218.005 36.2041 217.746 36.1557 217.504 36.0587C217.262 35.9616 217.042 35.8177 216.856 35.6353C216.442 35.237 216.203 34.6913 216.191 34.1174H220.578C220.578 34.0633 220.578 33.9926 220.578 33.9095C220.605 33.1898 220.367 32.4854 219.908 31.93C219.694 31.6783 219.426 31.4784 219.123 31.3452C218.821 31.2119 218.492 31.1488 218.162 31.1606ZM216.191 33.6558C216.215 33.1101 216.433 32.5909 216.806 32.192C216.974 32.0051 217.18 31.8562 217.41 31.7551C217.64 31.654 217.89 31.603 218.141 31.6056C218.395 31.5928 218.649 31.6396 218.882 31.7421C219.115 31.8446 219.322 32 219.484 32.1961C219.819 32.6229 220.012 33.1433 220.037 33.6849L216.191 33.6558ZM225.676 36.1967C225.392 36.2001 225.109 36.1451 224.847 36.0349C224.584 35.9247 224.347 35.7618 224.15 35.5563C223.942 35.3402 223.778 35.0848 223.669 34.8049C223.559 34.5251 223.507 34.2264 223.514 33.9261C223.498 33.3293 223.719 32.7505 224.129 32.3167C224.32 32.1043 224.555 31.9354 224.816 31.8213C225.078 31.7072 225.362 31.6507 225.647 31.6555C225.985 31.6739 226.315 31.7609 226.619 31.911C226.922 32.0611 227.191 32.2713 227.41 32.5288L227.772 32.1545C227.51 31.8514 227.185 31.6078 226.821 31.44C226.457 31.2722 226.061 31.184 225.66 31.1814C225.3 31.1757 224.943 31.247 224.613 31.3904C224.283 31.5339 223.988 31.7462 223.747 32.0131C223.493 32.269 223.293 32.5729 223.158 32.9071C223.023 33.2413 222.956 33.599 222.961 33.9594C222.956 34.3149 223.022 34.6678 223.155 34.9977C223.287 35.3275 223.484 35.6277 223.734 35.8807C223.976 36.147 224.271 36.3588 224.601 36.5022C224.931 36.6456 225.288 36.7173 225.647 36.7124C226.061 36.708 226.47 36.6117 226.842 36.4305C227.215 36.2493 227.542 35.9876 227.801 35.6644L227.448 35.3525C227.234 35.6177 226.965 35.8326 226.658 35.9821C226.352 36.1316 226.017 36.2119 225.676 36.2175V36.1967ZM232.684 36.1967C232.395 36.1992 232.11 36.1417 231.845 36.0279C231.58 35.914 231.342 35.7464 231.145 35.5355C230.936 35.3194 230.773 35.064 230.663 34.7842C230.554 34.5043 230.502 34.2056 230.509 33.9053C230.493 33.3085 230.714 32.7297 231.124 32.2959C231.315 32.0835 231.549 31.9146 231.811 31.8005C232.073 31.6864 232.356 31.6299 232.642 31.6347C232.98 31.6514 233.311 31.7376 233.615 31.8879C233.918 32.0381 234.187 32.2492 234.405 32.508L234.767 32.1337C234.505 31.8302 234.181 31.5863 233.816 31.4184C233.452 31.2506 233.056 31.1627 232.655 31.1606C232.295 31.1555 231.938 31.227 231.608 31.3704C231.279 31.5138 230.983 31.7258 230.742 31.9923C230.492 32.248 230.296 32.5505 230.164 32.8823C230.032 33.2142 229.967 33.569 229.972 33.9261C229.967 34.2843 230.033 34.6401 230.167 34.9722C230.301 35.3044 230.501 35.6062 230.754 35.8599C230.996 36.1258 231.292 36.3373 231.621 36.4807C231.951 36.6241 232.307 36.6959 232.667 36.6916C233.081 36.6878 233.49 36.5918 233.862 36.4105C234.235 36.2293 234.562 35.9673 234.821 35.6436L234.472 35.3317C234.258 35.6022 233.986 35.8219 233.677 35.9751C233.368 36.1282 233.029 36.211 232.684 36.2175V36.1967ZM237.994 35.8224V31.2479H237.487V36.571H237.994L241.654 32.0214V36.571H242.161V31.2854H241.654L237.994 35.8224ZM247.143 31.2479C246.617 31.2217 246.099 31.3822 245.679 31.7012C245.504 31.837 245.362 32.0117 245.265 32.2116C245.168 32.4115 245.119 32.6311 245.122 32.8532C245.112 33.2314 245.247 33.5991 245.501 33.8804C245.788 34.1987 246.181 34.4025 246.607 34.4542L244.943 36.571H245.596L247.181 34.4917H249.227V36.571H249.734V31.2854L247.143 31.2479ZM249.222 34.0134H247.143C246.759 34.0349 246.379 33.9249 246.066 33.7015C245.94 33.6034 245.838 33.4771 245.77 33.3326C245.701 33.1882 245.667 33.0297 245.671 32.8698C245.667 32.7077 245.702 32.5469 245.775 32.4018C245.847 32.2567 245.954 32.1318 246.087 32.0381C246.395 31.8139 246.771 31.7023 247.151 31.722H249.231L249.222 34.0134Z" fill="white"/>
<path d="M59.6058 14.8838H50.9143V7.34008H46.4895V26.4698H50.9143V18.6308H59.6058V26.4739H64.0431V7.34424H59.6058V14.8838ZM75.026 7.34008L66.5008 26.4698H71.0379L72.7429 22.3694H81.6091L83.31 26.4698H87.9552L79.4009 7.34008H75.026ZM74.1402 19.0133L77.1843 11.69L80.216 19.0133H74.1402ZM124.406 18.4935H133.288V15.0502H124.406V10.8915H134.461V7.34008H120.006V26.4698H134.819V22.9183H124.422L124.406 18.4935ZM180.069 8.17596C178.668 7.58857 177.158 7.30508 175.64 7.34424H167.347V26.4739H171.772V21.2091H175.627C177.15 21.25 178.664 20.9665 180.069 20.3774C181.239 19.8793 182.237 19.0476 182.938 17.9862C183.629 16.882 183.98 15.5994 183.949 14.2975C183.984 12.9859 183.632 11.6929 182.938 10.5797C182.24 9.51256 181.242 8.67615 180.069 8.17596ZM178.443 16.7178C177.769 17.3 176.746 17.5911 175.382 17.5911H171.772V10.9373H175.382C176.746 10.9373 177.769 11.2284 178.443 11.8106C178.784 12.1194 179.053 12.5008 179.227 12.9268C179.402 13.3529 179.479 13.8127 179.453 14.2725C179.479 14.7298 179.401 15.1869 179.226 15.6102C179.051 16.0334 178.784 16.4119 178.443 16.7178ZM191.052 18.4935H199.93V15.0502H191.052V10.8915H201.107V7.34008H186.648V26.4698H201.461V22.9183H191.064L191.052 18.4935ZM162.311 17.3707C161.758 16.9826 161.144 16.6903 160.494 16.5057C160.826 16.3461 161.142 16.1553 161.438 15.936C162.007 15.5191 162.465 14.968 162.769 14.3317C163.074 13.6954 163.217 12.9936 163.185 12.2888C163.215 11.57 163.06 10.8553 162.735 10.2136C162.409 9.57196 161.924 9.0249 161.326 8.6251C160.078 7.76842 158.357 7.34008 156.136 7.34008H147.216V26.4698H156.656C159.076 26.4698 160.92 25.9915 162.187 25.035C162.802 24.5821 163.297 23.9851 163.629 23.2963C163.96 22.6076 164.117 21.8481 164.087 21.0843C164.125 20.3663 163.982 19.6502 163.672 19.0015C163.362 18.3528 162.894 17.7921 162.311 17.3707ZM151.624 10.6212H155.753C156.53 10.5728 157.3 10.7867 157.941 11.2284C158.192 11.4395 158.389 11.7071 158.517 12.0092C158.645 12.3113 158.7 12.6394 158.677 12.9667C158.699 13.2933 158.644 13.6206 158.516 13.9219C158.388 14.2233 158.191 14.4901 157.941 14.7008C157.298 15.1353 156.527 15.3417 155.753 15.2872H151.624V10.6212ZM158.814 22.5939C158.124 23.0389 157.308 23.2489 156.489 23.1928H151.624V18.3563H156.489C157.307 18.3009 158.121 18.5062 158.814 18.9426C159.083 19.1535 159.296 19.4273 159.433 19.74C159.571 20.0526 159.63 20.3943 159.604 20.735C159.632 21.0856 159.574 21.4375 159.436 21.7611C159.299 22.0847 159.085 22.3704 158.814 22.5939ZM241.745 7.34008C240.244 7.30005 238.752 7.58372 237.37 8.17181C236.191 8.68663 235.189 9.537 234.489 10.6171C233.782 11.7717 233.427 13.1067 233.465 14.4596C233.428 15.7629 233.76 17.0502 234.422 18.1733C235.076 19.2295 236.039 20.0597 237.179 20.552L237.516 20.6934L233.52 26.4573H238.194L241.575 21.3713H245.625V26.4739H250V7.34424L241.745 7.34008ZM245.625 17.8822H241.745C240.506 17.8822 239.568 17.5814 238.93 16.9798C238.599 16.6434 238.343 16.241 238.178 15.7988C238.013 15.3567 237.944 14.8848 237.973 14.4139C237.973 13.2606 238.306 12.3942 238.972 11.8148C239.637 11.2353 240.598 10.9442 241.853 10.9415H245.625V17.8822ZM111.867 21.2091L105.334 18.0402V7.34008H100.793V18.0277L94.2181 21.2091V7.34008H89.7018V24.8063L92.9414 26.8399L103.051 21.9535L113.115 26.8399L116.359 24.8063V7.34008H111.867V21.2091ZM217.571 11.8605L207.516 6.97828L204.268 9.00769V26.4739H208.763V12.6174L215.309 15.8029V26.4906H219.825V15.8029L226.404 12.6257V26.4739H230.92V9.00769L227.681 6.97412L217.571 11.8605Z" fill="white"/>
<mask id="mask0_4_2516" style="mask-type:alpha" maskUnits="userSpaceOnUse" x="0" y="0" width="35" height="44">
<path d="M34.1007 5.45066L31.4003 0H2.70602L0 5.45066L12.7186 21.6221L0 37.7991L2.70602 43.2497H31.4003L34.1007 37.7991L21.3821 21.6276L34.1007 5.45066ZM24.408 6.75656L17.0521 16.1127L9.69721 6.75656H24.408ZM9.69721 36.4909L17.0521 27.137L24.408 36.4909H9.69721Z" fill="white"/>
</mask>
<g mask="url(#mask0_4_2516)">
<rect x="-3.32666" y="-2.49512" width="40.3387" height="50.7352" fill="white"/>
<path d="M26.5652 6.33362C26.2691 5.82584 25.8757 5.38145 25.4077 5.02588C24.9396 4.67031 24.406 4.41054 23.8374 4.26144C23.2688 4.11234 22.6764 4.07684 22.0941 4.15696C21.5117 4.23709 20.9509 4.43127 20.4437 4.72839C19.9947 5.01329 19.5957 5.37015 19.2627 5.78468C19.2453 5.80146 19.2241 5.81367 19.2009 5.8202C19.1776 5.82673 19.1531 5.82739 19.1296 5.82211C18.0995 5.69663 17.0568 5.91599 16.1645 6.4459C14.9169 7.20277 14.3597 8.30481 13.8689 9.5316C13.8647 9.54754 13.8561 9.56196 13.844 9.57319L13.7359 9.7021C12.9041 10.7376 12.2762 11.7814 12.193 13.1247C12.1362 14.0408 12.3444 14.9539 12.7928 15.7548C13.2412 16.5557 13.9108 17.2105 14.7215 17.6409C15.1894 17.8849 15.6958 18.0467 16.2186 18.1192C16.4889 18.2 16.7683 18.2461 17.0503 18.2564C17.6391 18.3868 18.252 18.3581 18.826 18.1732C19.9464 17.8539 20.9028 17.1192 21.5 16.1189C21.7277 15.6911 21.8982 15.2353 22.0074 14.7632C22.0135 14.7393 22.0255 14.7173 22.0422 14.6992C22.0588 14.681 22.0798 14.6673 22.103 14.6592L22.4316 14.5511C23.5368 14.2485 24.5415 13.6571 25.3426 12.8377C26.1049 11.9425 26.6791 10.903 27.031 9.78112C27.397 8.73314 27.11 7.25683 26.5652 6.33362Z" fill="#3BA4DC"/>
<path d="M25.4885 41.9358C25.8224 40.6767 25.6617 39.3374 25.0393 38.193C24.7141 37.6143 24.2778 37.1055 23.7554 36.6958C23.233 36.2862 22.6348 35.9838 21.9952 35.806C21.4194 35.6694 20.8249 35.63 20.2361 35.6896C20.2095 35.6935 20.1823 35.6901 20.1574 35.6799C20.1325 35.6696 20.1109 35.6528 20.0947 35.6313C19.3911 34.7177 18.406 34.0614 17.2918 33.7641C15.7282 33.3482 14.4099 33.7641 13.0542 34.3422C13.0377 34.3459 13.0207 34.3459 13.0043 34.3422H12.813C11.345 34.4919 10.035 34.7913 8.89554 35.781C8.1288 36.4489 7.56938 37.3223 7.28343 38.2981C6.99749 39.2738 6.99699 40.311 7.28199 41.2871C7.44915 41.8412 7.7093 42.3629 8.05134 42.8299C8.19119 43.1013 8.36442 43.3542 8.56701 43.5826C8.91876 44.1528 9.41711 44.6181 10.01 44.93C11.1364 45.5745 12.4672 45.7621 13.7279 45.454C14.2448 45.3028 14.7397 45.0847 15.2 44.8053C15.2235 44.7922 15.25 44.7853 15.2769 44.7853C15.3039 44.7853 15.3304 44.7922 15.3539 44.8053L15.6949 44.9841C16.794 45.6254 18.0445 45.9614 19.3171 45.9572C20.6221 45.8672 21.8953 45.5135 23.0598 44.9175C24.2201 44.4726 25.1724 43.0877 25.4885 41.9358Z" fill="#3BA4DC"/>
<path d="M9.6773 1.47654C9.20149 0.843966 8.5594 0.355918 7.82256 0.066762C7.79587 0.0560904 7.77294 0.0377584 7.75666 0.0140762C7.74038 -0.00960588 7.73147 -0.0375781 7.73107 -0.0663142C7.74064 -0.822827 7.54366 -1.56762 7.16133 -2.22048C7.05722 -2.39413 6.94192 -2.56083 6.81617 -2.71952C6.79489 -2.74365 6.78307 -2.77467 6.7829 -2.80685C6.78213 -3.58896 6.57714 -4.35732 6.18822 -5.03587C5.5918 -6.03775 4.63532 -6.77407 3.51422 -7.09439C2.93894 -7.25224 2.33809 -7.29456 1.74637 -7.2189C1.15464 -7.14324 0.58377 -6.9511 0.0667181 -6.65358C-0.935678 -6.05195 -1.67163 -5.09149 -1.9918 -3.96711C-2.27459 -2.83596 -2.55738 -1.70897 -2.82353 -0.577825C-3.30177 1.31851 -4.07112 3.34792 -3.28098 5.24425C-3.02105 5.87412 -2.63333 6.44324 -2.14229 6.91566C-1.65126 7.38808 -1.06759 7.75354 -0.428159 7.98895C-0.401351 7.9983 -0.378104 8.01573 -0.36162 8.03885C-0.20796 8.25972 -0.0324092 8.46453 0.162366 8.65017C1.73849 10.1764 4.07979 10.4176 6.07177 9.6524C7.08524 9.31198 8.02302 8.77812 8.8331 8.08044C9.62369 7.34626 10.1989 6.41019 10.4966 5.37317C10.6839 4.7057 10.7073 4.00285 10.5646 3.32442C10.422 2.64599 10.1176 2.01205 9.6773 1.47654Z" fill="#E32027"/>
<path d="M22.3195 -1.17238C22.2986 -2.10201 21.9948 -3.00318 21.4488 -3.7558C20.9027 -4.50842 20.1402 -5.07676 19.263 -5.38507H19.238C18.3702 -5.91636 17.367 -6.18459 16.3499 -6.15728C15.3328 -6.12997 14.3454 -5.80829 13.5074 -5.2312C13.0609 -4.92372 12.6532 -4.56347 12.2931 -4.15827C12.274 -4.13755 12.2494 -4.12266 12.2222 -4.1153C12.1949 -4.10794 12.1662 -4.10842 12.1392 -4.11669C12.0468 -4.14932 11.9524 -4.17571 11.8564 -4.1957C11.2805 -4.35139 10.6795 -4.39186 10.0879 -4.31479C9.49632 -4.23772 8.92575 -4.04462 8.40894 -3.74657C7.43087 -3.12185 6.70252 -2.17427 6.35042 -1.06841C5.60602 1.08991 6.72885 3.55182 8.5836 4.75366C8.60494 4.76549 8.62122 4.78472 8.62934 4.80772C8.91424 5.36827 9.30817 5.86631 9.78805 6.27263C10.2679 6.67896 10.8241 6.9854 11.4239 7.17398C13.5033 7.84768 15.3705 6.80387 17.1878 5.96798L18.6225 5.30676C19.2617 5.00652 19.8288 4.57218 20.2851 4.03328C20.7415 3.49438 21.0765 2.86353 21.2674 2.18363C21.3222 1.9898 21.3638 1.79252 21.3922 1.59311C21.3957 1.56872 21.4058 1.54573 21.4213 1.52657C22.0328 0.762745 22.3514 -0.194421 22.3195 -1.17238Z" fill="#E92064"/>
<path d="M29.5264 -8.17981C28.9318 -9.18241 27.9744 -9.91795 26.8524 -10.2342C25.691 -10.5473 24.4528 -10.3873 23.4091 -9.7892L22.8393 -9.34838C22.8169 -9.33245 22.79 -9.32389 22.7624 -9.32389C22.7348 -9.32389 22.708 -9.33245 22.6855 -9.34838C22.67 -9.35579 22.6561 -9.36623 22.6446 -9.37908C22.6332 -9.39194 22.6245 -9.40695 22.6189 -9.42324L22.569 -9.55216C22.1199 -10.675 21.5918 -11.5982 20.4897 -12.2303C19.4439 -12.8186 18.2087 -12.9725 17.0505 -12.6586C15.9268 -12.346 14.9682 -11.6095 14.3765 -10.6043C13.8484 -9.60622 13.4866 -8.2505 13.9232 -7.15263C14.4181 -5.90504 14.6968 -4.55764 15.2998 -3.36828C15.6145 -2.76159 16.048 -2.22439 16.5746 -1.7886C17.1011 -1.35281 17.7098 -1.02733 18.3647 -0.831516C18.9115 -0.230435 19.6184 0.202332 20.4024 0.416072C21.887 0.831935 23.0057 0.449341 24.3032 -0.06217C25.2181 -0.415653 26.1704 -0.744184 27.0312 -1.18916C27.5801 -1.4871 28.0853 -1.85934 28.5325 -2.29535C29.3102 -3.02311 29.5805 -3.77166 29.9797 -4.72815C30.3789 -5.68463 30.0421 -7.29402 29.5264 -8.17981Z" fill="#904098"/>
<path d="M27.0602 -2.33262C26.5325 -2.49539 25.982 -2.57124 25.43 -2.55718C25.3983 -2.55581 25.3672 -2.56617 25.3426 -2.58629C24.5414 -3.24795 23.5331 -3.60709 22.494 -3.601C21.1991 -3.57735 19.9607 -3.06654 19.0257 -2.17043C18.6972 -1.87933 18.3853 -1.57159 18.0651 -1.27633C16.3559 0.328904 16.3267 3.45619 18.0651 5.0531C18.5269 5.4837 19.0713 5.81625 19.6652 6.03068C20.2592 6.2451 20.8904 6.33695 21.5209 6.30069H21.5749C21.7205 6.35059 21.866 6.39218 22.0157 6.42961C23.0336 6.62618 24.081 6.61203 25.0931 6.38802C25.1081 6.38375 25.1239 6.38375 25.1389 6.38802C27.2764 6.76646 29.7134 5.2943 30.1874 3.14845C30.4697 2.00805 30.3024 0.802757 29.7202 -0.217653C29.138 -1.23806 28.1855 -1.99536 27.0602 -2.33262Z" fill="#66499D"/>
<path d="M36.1219 0.673923C36.0339 -0.0784755 35.7721 -0.800078 35.3571 -1.4338C34.942 -2.06752 34.3852 -2.59597 33.7307 -2.97735C33.4774 -3.11522 33.2131 -3.23206 32.9406 -3.32668C32.9234 -3.3308 32.9076 -3.33941 32.8948 -3.35163C32.8094 -3.43194 32.7191 -3.50694 32.6245 -3.57619C31.6057 -4.3996 30.6118 -4.62833 29.3267 -4.73645C28.2034 -4.81335 27.0756 -4.68223 25.9998 -4.3497C24.8874 -4.01891 23.9374 -3.2868 23.3342 -2.29534C22.7312 -1.25064 22.5653 -0.0100908 22.8726 1.15632C23.1941 2.28286 23.9393 3.24118 24.9519 3.83032C25.2078 3.96476 25.4733 4.08013 25.7462 4.17549C25.7687 4.18334 25.7889 4.19677 25.8048 4.21453C25.8208 4.23228 25.832 4.25378 25.8374 4.27703C25.8428 4.30028 25.8422 4.32451 25.8357 4.34748C25.8292 4.37044 25.817 4.39139 25.8002 4.40837L25.7545 4.45411C24.9307 5.30365 24.4621 6.43557 24.4445 7.61883C24.4549 8.80357 24.9245 9.93808 25.7545 10.7835C26.596 11.6196 27.733 12.0902 28.9192 12.0935C30.1034 12.0806 31.237 11.6113 32.0839 10.7835C32.9308 9.91902 33.6797 8.96369 34.3171 7.93489C34.7258 7.29327 35.0317 6.59169 35.2237 5.85557C35.3412 5.36014 35.3832 4.84981 35.3484 4.34183L35.3983 4.26282C36.0444 3.18506 36.2999 1.91782 36.1219 0.673923Z" fill="#4554A5"/>
<path d="M36.5295 7.63554C35.9291 6.61143 34.947 5.86729 33.7986 5.56636C32.6502 5.26543 31.4294 5.43228 30.4039 6.03031C29.7033 6.4701 29.1175 7.07021 28.6947 7.78109C28.6842 7.79941 28.6698 7.81522 28.6525 7.82743C28.6353 7.83964 28.6156 7.84795 28.5949 7.85179L28.2788 7.90169C27.5704 8.04101 26.8981 8.32408 26.3035 8.73342C25.8104 9.0562 25.364 9.44521 24.9768 9.88951C24.956 9.91479 24.9262 9.93114 24.8937 9.93526C24.3089 10.0191 23.7449 10.2108 23.2302 10.5008C22.2064 11.1005 21.4623 12.0818 21.1614 13.2295C20.8604 14.3772 21.0272 15.5975 21.625 16.6223C22.2443 17.6082 23.191 18.3443 24.299 18.7016C25.3218 19.0742 26.427 19.16 27.4949 18.9496C28.5629 18.7392 29.553 18.2407 30.3581 17.5081C30.5827 17.3107 30.7862 17.0905 30.9653 16.8511C30.9788 16.8343 30.9959 16.8207 31.0153 16.8114C31.0348 16.802 31.056 16.7971 31.0776 16.797C31.4556 16.7881 31.8312 16.7336 32.1962 16.6348C33.2352 16.3739 34.1821 15.8314 34.9326 15.067C35.9851 13.9634 36.6982 12.5805 36.987 11.083C37.1824 9.86456 37.1741 8.73342 36.5295 7.63554Z" fill="#5B70B5"/>
<path d="M25.1682 17.7823C24.9686 16.7301 24.008 15.6323 23.1139 15.1083C22.0674 14.5096 20.827 14.3482 19.6622 14.6592C18.9435 14.8807 18.2821 15.2568 17.7243 15.7612C17.7039 15.7814 17.6776 15.7946 17.6493 15.7991C17.6209 15.8036 17.5919 15.799 17.5663 15.7861C17.3458 15.678 17.1254 15.5824 16.9009 15.495C16.8792 15.4866 16.8594 15.4738 16.8427 15.4576C16.7636 15.3661 16.6846 15.2705 16.6098 15.1748C15.9299 14.2036 15.0615 13.379 14.0564 12.7503C13.8456 12.1541 13.4997 11.6146 13.0458 11.1742C12.2054 10.3367 11.0676 9.86574 9.88111 9.86426C8.70407 9.91102 7.58215 10.3754 6.7164 11.1742C6.04808 11.6778 5.46533 12.2858 4.99057 12.9749C4.40178 13.9787 4.20024 15.163 4.4239 16.3051C4.64755 17.4471 5.28096 18.4679 6.20489 19.1754C6.98644 19.749 7.88085 20.1501 8.82898 20.3523L9.35297 20.4771L9.59833 20.6476C9.97072 21.1958 10.4016 21.702 10.8833 22.1572C11.1079 22.3568 11.3366 22.5522 11.5778 22.7352C11.6032 22.7549 11.6209 22.7829 11.6277 22.8142C11.7625 23.4717 12.0354 24.093 12.4283 24.6371C12.8211 25.1813 13.325 25.6358 13.9067 25.9706C14.6641 26.396 15.5194 26.6163 16.3881 26.6098C17.2568 26.6032 18.1087 26.37 18.8596 25.9332C19.1985 25.727 19.515 25.4859 19.8036 25.2137L20.2195 25.0058C20.9867 24.8552 21.7224 24.5739 22.3944 24.1741C23.3106 23.6334 24.0791 22.8749 24.6318 21.9659C25.3295 20.6882 25.5211 19.1947 25.1682 17.7823Z" fill="#08BCD3"/>
<path d="M18.9344 19.7244C18.334 18.7003 17.3519 17.9562 16.2035 17.6552C15.0551 17.3543 13.8343 17.5211 12.8088 18.1192C11.8814 18.7139 10.954 19.6662 10.7503 20.7932C10.6879 21.1591 10.6338 21.5292 10.5881 21.8952C10.5855 21.9191 10.5769 21.9419 10.5631 21.9616C10.5493 21.9812 10.5307 21.997 10.5091 22.0075C9.67016 22.3616 8.89475 22.8505 8.2135 23.4547C7.71825 23.9005 7.30696 24.4315 6.99918 25.0225C6.67544 25.6584 6.46171 26.3446 6.36707 27.0519L6.38786 26.8814C6.37513 26.9956 6.34277 27.1067 6.29221 27.2099C5.90546 28.2413 6.20904 29.7467 6.7455 30.6616C7.34445 31.6861 8.32552 32.4311 9.47327 32.7328C10.621 33.0346 11.8416 32.8685 12.867 32.271C13.7471 31.7053 14.4255 30.8755 14.8049 29.9006C14.8116 29.8831 14.8216 29.8671 14.8344 29.8536C14.8473 29.84 14.8627 29.8291 14.8798 29.8216C15.238 29.6792 15.5855 29.511 15.9194 29.3184C16.8839 28.7446 17.699 27.9509 18.2982 27.002C19.0509 25.8126 19.2172 24.5068 19.3753 23.147C19.6553 21.9908 19.4984 20.7719 18.9344 19.7244Z" fill="#009888"/>
<path d="M28.5616 25.3677C28.0423 25.0417 27.4543 24.841 26.8441 24.7813C26.8212 24.7793 26.799 24.7718 26.7795 24.7595C26.7599 24.7472 26.7436 24.7305 26.7318 24.7106C26.3055 23.9129 25.6588 23.2547 24.8688 22.8143C23.8499 22.2196 22.7271 22.178 21.6251 22.0408C21.2092 21.9826 20.7684 21.9493 20.3317 21.8994C20.3089 21.8974 20.2872 21.8887 20.2693 21.8744C19.5196 21.3034 18.6 21.0003 17.6577 21.0136C16.5183 21.0635 15.2665 21.4295 14.493 22.3236C13.6281 23.2296 13.1289 24.4234 13.0916 25.6754C13.0973 26.9401 13.6008 28.1517 14.493 29.0481C15.1396 29.6768 15.942 30.1218 16.8177 30.3372C17.1296 30.3996 17.4581 30.4246 17.7742 30.4703L18.1484 30.5161C18.182 30.5209 18.2127 30.5372 18.2355 30.5622C18.2583 30.5873 18.2716 30.6195 18.2732 30.6533C18.2732 30.8363 18.2982 31.0193 18.3231 31.2064C18.4291 31.9849 18.7083 32.7296 19.1401 33.386C19.5719 34.0423 20.1454 34.5935 20.8183 34.9991C21.7361 35.5362 22.7709 35.8417 23.8333 35.889H24.0038C24.0322 35.8918 24.0594 35.9018 24.0828 35.9181L24.324 36.0928C24.8088 36.4202 25.3461 36.6621 25.9126 36.8081C28.6115 37.594 31.3105 35.7643 32.1505 33.1859C33.1569 30.1085 31.061 26.9438 28.5616 25.3677Z" fill="#279B47"/>
<path d="M36.2178 36.8705C35.7422 36.0943 35.0635 35.463 34.2549 35.0448H34.23L34.101 34.9326C33.0447 34.1008 31.5185 33.66 30.2002 34.1341C29.7452 34.2787 29.3074 34.4725 28.8944 34.7121C28.7697 34.7912 28.6532 34.8743 28.541 34.9617C28.5147 34.9837 28.4816 34.9957 28.4474 34.9957C28.4132 34.9957 28.38 34.9837 28.3538 34.9617C28.2582 34.8702 28.1584 34.7787 28.0544 34.6913C28.0363 34.6762 28.0233 34.6559 28.017 34.6331C27.7187 33.8062 27.24 33.0561 26.6155 32.4374C25.9058 31.7575 25.0534 31.2446 24.1203 30.9361C24.0932 30.9273 24.0699 30.9097 24.0538 30.8862C23.9287 30.7064 23.7897 30.5368 23.6379 30.3789C22.7982 29.5403 21.66 29.0693 20.4732 29.0693C19.2865 29.0693 18.1483 29.5403 17.3085 30.3789C16.4785 31.2243 16.0089 32.3588 15.9985 33.5436C16.0208 34.5288 16.2898 35.4927 16.7809 36.3471C17.2721 37.2015 17.9696 37.919 18.8098 38.4341C19.0586 38.5988 19.3233 38.7381 19.5999 38.85C19.617 38.8575 19.6324 38.8684 19.6452 38.882C19.6581 38.8956 19.6681 38.9115 19.6748 38.929C19.9955 39.6615 20.4876 40.3061 21.1095 40.8087C21.1256 40.8239 21.1384 40.8423 21.1469 40.8628C21.3936 41.4814 21.758 42.0463 22.2198 42.5262C22.6482 42.9527 23.1515 43.2967 23.7045 43.5409C23.7246 43.5499 23.7419 43.5643 23.7544 43.5825C24.2319 44.2447 24.8319 44.8094 25.5218 45.2459C26.9025 46.0777 28.5451 45.9529 30.0963 45.9404C30.9736 45.9612 31.8461 45.8056 32.6622 45.483C33.2912 45.2255 33.8545 44.8304 34.3107 44.3266C34.767 43.8229 35.1046 43.2233 35.2987 42.5719C35.3045 42.5478 35.3175 42.526 35.3361 42.5096C35.9859 41.9338 36.4504 41.1784 36.6711 40.3388C36.8297 39.7595 36.8713 39.1545 36.7935 38.559C36.7156 37.9635 36.5199 37.3895 36.2178 36.8705Z" fill="#8AC249"/>
<path d="M24.3615 35.0576C23.7044 34.1635 23.0432 33.2694 22.3778 32.3753C21.4712 31.1568 20.6062 30.1754 19.0509 29.7179C18.2718 29.511 17.4618 29.4462 16.6597 29.5266C15.4083 29.5541 14.1686 29.7729 12.9834 30.1754C12.3719 30.4046 11.7841 30.6929 11.2285 31.0362C11.2105 31.0454 11.1905 31.0501 11.1703 31.0501C11.1501 31.0501 11.1301 31.0454 11.1121 31.0362C10.0152 30.6989 8.85105 30.6431 7.72694 30.874C5.33989 31.3148 3.56832 33.2819 2.83224 35.5109C2.51702 36.6552 2.66888 37.8778 3.25447 38.9102C3.84006 39.9425 4.81149 40.7003 5.95537 41.0169C6.55594 41.1631 7.17957 41.1883 7.78999 41.0912C8.4004 40.9941 8.98542 40.7766 9.511 40.4513C9.53076 40.4431 9.55196 40.4389 9.57338 40.4389C9.59479 40.4389 9.61599 40.4431 9.63576 40.4513C10.7174 40.8425 11.8929 40.8933 13.0042 40.5969C14.0156 40.3044 14.9321 39.7507 15.6616 38.9917L15.8446 38.8004C15.8578 38.7839 15.8746 38.7706 15.8937 38.7615C15.9128 38.7523 15.9336 38.7476 15.9548 38.7476C15.9759 38.7476 15.9968 38.7523 16.0159 38.7615C16.035 38.7706 16.0517 38.7839 16.065 38.8004L16.6347 39.5739C17.35 40.5428 18.1027 41.2997 19.3087 41.6532C20.4767 41.9503 21.7146 41.7771 22.7562 41.1708C23.7694 40.5823 24.5148 39.6237 24.8355 38.4968C25.0643 37.4031 25.0643 36.0058 24.3615 35.0576Z" fill="#CEDD37"/>
<path d="M11.8105 30.7117C11.4947 29.567 10.7373 28.5946 9.70486 28.0082C8.67237 27.4218 7.44928 27.2693 6.30444 27.5844C5.631 27.7921 5.01331 28.1495 4.49764 28.6299C3.98198 29.1103 3.58172 29.7011 3.32686 30.3582C3.31917 30.3836 3.30303 30.4056 3.28112 30.4206C2.89852 30.6909 2.53672 30.9986 2.1874 31.2939C1.41978 31.9349 0.751306 32.6861 0.203734 33.5229C-0.498048 34.731 -0.822462 36.1213 -0.727799 37.5152C-0.688887 38.2138 -0.599941 38.9086 -0.461646 39.5945C-0.461646 39.5945 -0.461646 39.6195 -0.461646 39.6278C-0.541117 40.2324 -0.50299 40.8466 -0.349364 41.4368C-0.0331461 42.5587 0.7024 43.5161 1.705 44.1108C2.73596 44.685 3.94894 44.8386 5.09048 44.5394C6.23202 44.2403 7.2138 43.5116 7.83066 42.5055C8.66238 41.258 8.69981 39.7068 8.42118 38.2762C8.39623 38.1598 8.37128 38.0433 8.34217 37.9269C8.334 37.8964 8.33658 37.8641 8.34945 37.8353C8.36233 37.8065 8.38472 37.7831 8.41286 37.7689L8.86199 37.5318C9.59721 37.1405 10.2364 36.5908 10.7334 35.9224C11.3018 35.1953 11.6947 34.3469 11.8815 33.4431C12.0683 32.5393 12.044 31.6045 11.8105 30.7117Z" fill="#8AC249"/>
<path d="M13.2703 8.91206C13.0057 8.03456 12.524 7.238 11.8698 6.59613C11.2156 5.95426 10.41 5.48782 9.52759 5.23999C7.98119 4.83271 6.33795 5.02585 4.92814 5.78061C4.19847 6.23569 3.58253 6.85162 3.12746 7.5813C3.11532 7.59715 3.09966 7.60996 3.08171 7.61873C2.8553 7.7446 2.64452 7.89675 2.45376 8.07202C1.97295 8.3842 1.57941 8.81351 1.31014 9.31961C1.01079 9.82739 0.814724 10.3893 0.733194 10.9731C0.651665 11.5569 0.686282 12.151 0.835057 12.7214C0.983832 13.2918 1.24383 13.8271 1.60012 14.2967C1.95642 14.7663 2.40198 15.1609 2.91121 15.4577C3.89681 15.9776 5.27747 16.3602 6.35871 15.9069C6.5708 15.8195 6.77457 15.7322 6.97419 15.6407C7.0106 15.6284 7.05006 15.6284 7.08647 15.6407C7.26831 15.7158 7.4561 15.7757 7.64789 15.8195C8.79183 16.109 10.0034 15.9453 11.0294 15.3625C12.0555 14.7798 12.8167 13.823 13.1539 12.6923C13.5724 11.4726 13.613 10.1551 13.2703 8.91206Z" fill="#66499D"/>
</g>
</svg>
