<svg width="250" height="44" viewBox="0 0 250 44" fill="none" xmlns="http://www.w3.org/2000/svg">
<path d="M106.681 36.2174C106.393 36.2199 106.107 36.1624 105.843 36.0485C105.578 35.9347 105.339 35.767 105.143 35.5562C104.934 35.34 104.77 35.0847 104.661 34.8048C104.552 34.525 104.499 34.2263 104.506 33.926V33.926C104.49 33.3292 104.712 32.7504 105.122 32.3166C105.313 32.1042 105.547 31.9353 105.809 31.8212C106.071 31.7071 106.354 31.6506 106.64 31.6554C106.978 31.6738 107.308 31.7607 107.611 31.9109C107.914 32.061 108.184 32.2712 108.403 32.5287L108.765 32.1544C108.502 31.8513 108.178 31.6077 107.814 31.4399C107.449 31.272 107.053 31.1839 106.652 31.1813C106.293 31.1756 105.936 31.2469 105.606 31.3903C105.276 31.5338 104.981 31.7461 104.739 32.013C104.239 32.5238 103.961 33.2113 103.966 33.926C103.961 34.2845 104.028 34.6403 104.163 34.9724C104.298 35.3046 104.498 35.6063 104.752 35.8597C104.993 36.1261 105.289 36.3379 105.619 36.4813C105.949 36.6247 106.305 36.6963 106.665 36.6915C107.079 36.6871 107.487 36.5908 107.86 36.4096C108.232 36.2284 108.56 35.9667 108.819 35.6435L108.465 35.3316C108.252 35.6022 107.982 35.822 107.673 35.9752C107.365 36.1284 107.026 36.2111 106.681 36.2174V36.2174ZM110.62 31.751H112.899V36.5709H113.41V31.751H115.689V31.2853H110.62V31.751ZM120.85 31.1605C120.404 31.1638 119.967 31.2867 119.584 31.5164C119.202 31.746 118.888 32.0741 118.675 32.4663V31.2853H118.168V38.2302H118.675V35.4314C118.899 35.8094 119.217 36.123 119.598 36.3416C119.979 36.5602 120.41 36.6765 120.85 36.679C121.19 36.6844 121.528 36.62 121.843 36.4898C122.158 36.3597 122.442 36.1665 122.68 35.9221C122.938 35.6599 123.141 35.3476 123.275 35.0044C123.408 34.6611 123.471 34.2941 123.457 33.926V33.926C123.475 33.5554 123.415 33.1852 123.281 32.8392C123.148 32.4932 122.942 32.1792 122.68 31.9174C122.444 31.6746 122.161 31.4822 121.849 31.3521C121.536 31.222 121.201 31.1568 120.862 31.1605H120.85ZM122.875 33.9468C122.892 34.2497 122.848 34.5529 122.746 34.8386C122.644 35.1243 122.485 35.3866 122.28 35.6102C122.09 35.8103 121.86 35.9681 121.605 36.0734C121.35 36.1787 121.076 36.2292 120.8 36.2215C120.518 36.2222 120.238 36.1653 119.979 36.0545C119.719 35.9437 119.485 35.7812 119.29 35.577C119.076 35.3651 118.908 35.1113 118.797 34.8315C118.685 34.5518 118.632 34.252 118.642 33.9509V33.9509C118.632 33.6492 118.685 33.3488 118.796 33.0684C118.908 32.7879 119.076 32.5334 119.29 32.3207C119.485 32.1172 119.72 31.9555 119.979 31.8454C120.239 31.7353 120.518 31.6792 120.8 31.6803C121.072 31.6731 121.343 31.7227 121.595 31.8258C121.847 31.9289 122.075 32.0833 122.264 32.2792C122.471 32.5019 122.631 32.7638 122.736 33.0495C122.84 33.3352 122.886 33.6389 122.871 33.9426L122.875 33.9468ZM128.182 31.1896C127.53 31.1961 126.889 31.3511 126.306 31.6429L126.493 32.0879C127.006 31.818 127.577 31.6753 128.157 31.672C128.622 31.6438 129.081 31.7923 129.442 32.0879C129.601 32.2436 129.724 32.4322 129.803 32.6405C129.882 32.8487 129.915 33.0717 129.899 33.2939V33.5226C129.326 33.3717 128.736 33.2949 128.144 33.2939C127.556 33.2667 126.974 33.4253 126.481 33.7472C126.279 33.8856 126.116 34.0723 126.005 34.2903C125.895 34.5083 125.841 34.7505 125.849 34.9947V34.9947C125.84 35.2333 125.892 35.4701 125.999 35.6832C126.107 35.8962 126.267 36.0786 126.464 36.2132C127.001 36.5797 127.659 36.7253 128.301 36.62C128.943 36.5147 129.519 36.1666 129.911 35.6476V36.5293H130.406V33.2689C130.422 32.9968 130.383 32.7243 130.29 32.4677C130.198 32.2112 130.055 31.9759 129.87 31.776C129.643 31.5687 129.376 31.4098 129.086 31.309C128.796 31.2082 128.488 31.1675 128.182 31.1896ZM129.903 34.5789C129.911 34.8077 129.863 35.0349 129.764 35.2413C129.664 35.4476 129.517 35.627 129.333 35.7641C128.93 36.0765 128.43 36.2396 127.92 36.2257C127.532 36.2375 127.152 36.1205 126.838 35.893C126.695 35.7966 126.578 35.6657 126.499 35.5123C126.42 35.359 126.381 35.1881 126.385 35.0155V34.9947C126.381 34.8198 126.42 34.6466 126.499 34.4905C126.578 34.3344 126.695 34.2005 126.838 34.1006C127.221 33.8575 127.671 33.7411 128.123 33.7679C128.728 33.7719 129.33 33.8515 129.916 34.005L129.903 34.5789ZM132.561 31.7385H134.839V36.5709H135.347V31.751H137.651V31.2853H132.561V31.7385ZM141.888 31.148C141.55 31.1421 141.214 31.2109 140.905 31.3497C140.596 31.4884 140.321 31.6936 140.1 31.9506C139.621 32.4871 139.364 33.1859 139.381 33.9052C139.363 34.2758 139.422 34.6461 139.554 34.993C139.686 35.34 139.887 35.6562 140.146 35.9221C140.382 36.1695 140.666 36.3658 140.98 36.4988C141.295 36.6319 141.634 36.6989 141.976 36.6956C142.39 36.6952 142.799 36.6063 143.177 36.4349C143.554 36.2635 143.89 36.0135 144.163 35.7017L143.81 35.3898C143.584 35.6491 143.305 35.8574 142.993 36.0008C142.68 36.1442 142.34 36.2194 141.996 36.2215C141.736 36.2247 141.477 36.1764 141.235 36.0794C140.993 35.9823 140.773 35.8384 140.587 35.656C140.175 35.2566 139.936 34.7116 139.921 34.1381H144.304C144.309 34.0688 144.309 33.9994 144.304 33.9301C144.331 33.2113 144.095 32.5074 143.639 31.9506C143.426 31.6949 143.158 31.4908 142.855 31.354C142.551 31.2171 142.221 31.1509 141.888 31.1605V31.148ZM139.917 33.6432C139.943 33.097 140.162 32.5779 140.537 32.1794C140.704 31.993 140.91 31.8444 141.139 31.7433C141.369 31.6423 141.617 31.591 141.868 31.593C142.122 31.5799 142.376 31.6265 142.609 31.729C142.842 31.8316 143.048 31.9872 143.211 32.1835C143.549 32.6128 143.743 33.1384 143.764 33.6848L139.917 33.6432ZM147.041 36.5542H147.548V31.751H150.804V31.2853H147.041V36.5542ZM153.832 35.8265V31.252H153.325V36.5709H153.832L157.491 32.0213V36.5709H157.999V31.2853H157.491L153.832 35.8265ZM164.802 34.109C164.262 34.2692 163.702 34.3518 163.139 34.3543C162.685 34.3924 162.233 34.2686 161.862 34.005C161.713 33.8525 161.598 33.6694 161.527 33.4684C161.455 33.2674 161.427 33.0532 161.446 32.8406V31.2853H160.939V32.8905C160.939 34.2046 161.654 34.8617 163.085 34.8617C163.66 34.8485 164.231 34.7647 164.786 34.6122V36.5709H165.293V31.2853H164.786L164.802 34.109ZM170.624 31.1439C170.286 31.1373 169.95 31.2059 169.64 31.3447C169.331 31.4835 169.057 31.689 168.836 31.9465C168.354 32.4814 168.095 33.1809 168.113 33.901V33.901C168.099 34.2663 168.16 34.6305 168.291 34.9715C168.423 35.3125 168.622 35.6232 168.878 35.8847C169.113 36.1332 169.397 36.3303 169.712 36.4635C170.027 36.5966 170.366 36.6629 170.708 36.6582C171.122 36.6577 171.531 36.5688 171.909 36.3974C172.286 36.226 172.622 35.9761 172.895 35.6643L172.542 35.3524C172.315 35.6111 172.036 35.8189 171.724 35.9623C171.411 36.1056 171.072 36.1812 170.728 36.1841C170.201 36.1898 169.693 35.9865 169.314 35.6185C168.904 35.2185 168.667 34.6736 168.653 34.1006H173.041C173.046 34.0314 173.046 33.9619 173.041 33.8927C173.066 33.1734 172.828 32.4695 172.371 31.9132C172.156 31.6652 171.887 31.4687 171.586 31.3384C171.284 31.2081 170.957 31.1473 170.629 31.1605L170.624 31.1439ZM168.653 33.639C168.683 33.108 168.896 32.6037 169.256 32.2126C169.424 32.0258 169.63 31.8768 169.861 31.7757C170.091 31.6746 170.34 31.6237 170.591 31.6263C170.845 31.6132 171.098 31.6598 171.331 31.7624C171.563 31.8649 171.769 32.0205 171.93 32.2168C172.27 32.6345 172.47 33.1477 172.504 33.6848L168.653 33.639ZM178.139 36.18C177.851 36.184 177.564 36.1272 177.299 36.0133C177.034 35.8993 176.796 35.7308 176.6 35.5187C176.392 35.3026 176.228 35.0472 176.119 34.7674C176.01 34.4876 175.957 34.1889 175.964 33.8885V33.8885C175.948 33.2917 176.169 32.7129 176.58 32.2792C176.77 32.0666 177.005 31.8975 177.267 31.7834C177.528 31.6693 177.812 31.6129 178.097 31.6179C178.435 31.6364 178.766 31.7233 179.069 31.8734C179.372 32.0236 179.641 32.2338 179.861 32.4912L180.223 32.117C179.96 31.8138 179.636 31.5702 179.271 31.4024C178.907 31.2346 178.511 31.1465 178.11 31.1439C177.75 31.1382 177.393 31.2094 177.064 31.3529C176.734 31.4963 176.438 31.7086 176.197 31.9756C175.943 32.2315 175.743 32.5354 175.608 32.8696C175.473 33.2037 175.406 33.5615 175.411 33.9218V33.9218C175.406 34.2803 175.473 34.6362 175.608 34.9683C175.743 35.3004 175.943 35.6021 176.197 35.8556C176.439 36.1219 176.734 36.3338 177.064 36.4772C177.394 36.6206 177.75 36.6922 178.11 36.6873C178.524 36.6829 178.932 36.5867 179.305 36.4054C179.677 36.2242 180.005 35.9625 180.264 35.6393L179.911 35.3274C179.7 35.5967 179.432 35.816 179.126 35.9699C178.821 36.1237 178.485 36.2082 178.143 36.2174L178.139 36.18ZM187.459 31.2478H186.806L184.643 33.6848H183.47V31.2853H182.963V36.5709H183.47V34.1339H184.643L186.835 36.5709H187.508L185.072 33.8636L187.459 31.2478ZM191.804 31.1647C191.151 31.1711 190.509 31.3261 189.925 31.6179L190.112 32.0629C190.625 31.793 191.195 31.6504 191.775 31.647C192.241 31.6188 192.7 31.7674 193.06 32.0629C193.219 32.2187 193.343 32.4073 193.422 32.6155C193.501 32.8238 193.534 33.0467 193.518 33.2689V33.4976C192.946 33.3468 192.358 33.2699 191.767 33.2689C191.179 33.2421 190.597 33.4006 190.103 33.7222C189.902 33.8606 189.739 34.0474 189.628 34.2654C189.518 34.4833 189.464 34.7255 189.471 34.9698V34.9698C189.463 35.2083 189.515 35.4452 189.622 35.6582C189.73 35.8713 189.89 36.0536 190.087 36.1883C190.624 36.5547 191.282 36.7004 191.924 36.5951C192.566 36.4898 193.142 36.1416 193.534 35.6227V36.5043H194.033V33.2689C194.048 32.9965 194.008 32.7239 193.915 32.4674C193.822 32.2109 193.679 31.9757 193.493 31.776C193.267 31.569 193.001 31.4103 192.711 31.3095C192.421 31.2087 192.114 31.1679 191.808 31.1896L191.804 31.1647ZM193.522 34.5539C193.535 34.7862 193.49 35.0181 193.392 35.2291C193.294 35.4402 193.146 35.6239 192.96 35.7641C192.555 36.0765 192.054 36.2396 191.542 36.2257C191.155 36.2375 190.775 36.1205 190.461 35.893C190.319 35.7958 190.203 35.6647 190.124 35.5115C190.044 35.3584 190.005 35.1879 190.008 35.0155V34.9947C190.004 34.8195 190.044 34.6459 190.123 34.4898C190.203 34.3338 190.321 34.2 190.465 34.1006C190.848 33.8575 191.298 33.7411 191.75 33.7679C192.355 33.7719 192.957 33.8515 193.543 34.005L193.522 34.5539ZM197.439 31.7011C197.264 31.8369 197.122 32.0116 197.025 32.2115C196.928 32.4114 196.879 32.631 196.882 32.8531C196.87 33.2316 197.006 33.5999 197.26 33.8802C197.546 34.1748 197.926 34.3613 198.333 34.4084L196.67 36.5251H197.323L198.907 34.4458H200.949V36.5251H201.461V31.2853H198.907C198.381 31.2582 197.862 31.4189 197.443 31.7385L197.439 31.7011ZM200.966 34.0133H198.886C198.502 34.0347 198.123 33.9247 197.809 33.7014C197.679 33.6055 197.574 33.4801 197.501 33.3355C197.429 33.191 197.392 33.0313 197.394 32.8697V32.8697C197.389 32.7075 197.425 32.5468 197.497 32.4017C197.57 32.2566 197.677 32.1317 197.809 32.038C198.118 31.8138 198.493 31.7022 198.874 31.7219H200.953L200.966 34.0133ZM211.362 36.18C211.074 36.184 210.788 36.1272 210.523 36.0133C210.257 35.8993 210.019 35.7308 209.824 35.5187C209.407 35.0935 209.176 34.5211 209.179 33.926V33.926C209.165 33.3287 209.387 32.7499 209.799 32.3166C209.989 32.104 210.224 31.9349 210.486 31.8208C210.748 31.7067 211.031 31.6503 211.317 31.6554C211.654 31.6738 211.985 31.7607 212.288 31.9109C212.591 32.061 212.861 32.2712 213.08 32.5287L213.442 32.1544C213.179 31.8507 212.854 31.6068 212.488 31.439C212.123 31.2712 211.727 31.1833 211.325 31.1813C210.965 31.1767 210.609 31.2484 210.279 31.3918C209.949 31.5352 209.654 31.7469 209.412 32.013C209.159 32.2697 208.96 32.5738 208.826 32.9079C208.692 33.2419 208.625 33.5993 208.63 33.9592V33.9592C208.625 34.3174 208.692 34.6728 208.826 35.0048C208.961 35.3369 209.16 35.6388 209.412 35.893C209.654 36.1587 209.95 36.3701 210.279 36.5135C210.609 36.6568 210.965 36.7288 211.325 36.7247C211.74 36.721 212.149 36.625 212.522 36.4438C212.895 36.2625 213.224 36.0005 213.483 35.6768L213.13 35.3649C212.916 35.6262 212.648 35.8378 212.344 35.985C212.04 36.1322 211.708 36.2115 211.371 36.2174L211.362 36.18ZM218.162 31.1605C217.823 31.1543 217.487 31.223 217.178 31.3617C216.869 31.5005 216.594 31.7058 216.373 31.9631C215.892 32.4985 215.635 33.1981 215.654 33.9177V33.9177C215.641 34.2825 215.701 34.6463 215.832 34.9871C215.963 35.328 216.161 35.6389 216.415 35.9013C216.651 36.1487 216.935 36.345 217.25 36.478C217.564 36.6111 217.903 36.6781 218.245 36.6748C218.659 36.6744 219.069 36.5855 219.446 36.4141C219.823 36.2427 220.159 35.9927 220.432 35.6809L220.079 35.369C219.853 35.6279 219.574 35.8359 219.261 35.9793C218.949 36.1226 218.609 36.1981 218.266 36.2007C218.005 36.2039 217.746 36.1556 217.504 36.0586C217.262 35.9615 217.042 35.8176 216.856 35.6352C216.442 35.2369 216.203 34.6912 216.191 34.1173H220.578C220.578 34.0632 220.578 33.9925 220.578 33.9093C220.605 33.1897 220.367 32.4852 219.908 31.9298C219.694 31.6782 219.426 31.4783 219.123 31.345C218.821 31.2118 218.492 31.1487 218.162 31.1605V31.1605ZM216.191 33.6557C216.215 33.11 216.433 32.5908 216.806 32.1918C216.974 32.005 217.18 31.856 217.41 31.7549C217.64 31.6539 217.89 31.6029 218.141 31.6055C218.395 31.5927 218.649 31.6395 218.882 31.742C219.115 31.8445 219.322 31.9999 219.484 32.196C219.819 32.6228 220.012 33.1431 220.037 33.6848L216.191 33.6557ZM225.676 36.1966C225.392 36.2 225.109 36.1449 224.847 36.0348C224.584 35.9246 224.347 35.7617 224.15 35.5562C223.942 35.34 223.778 35.0847 223.669 34.8048C223.559 34.525 223.507 34.2263 223.514 33.926V33.926C223.498 33.3292 223.719 32.7504 224.129 32.3166C224.32 32.1042 224.555 31.9353 224.816 31.8212C225.078 31.7071 225.362 31.6506 225.647 31.6554C225.985 31.6738 226.315 31.7607 226.619 31.9109C226.922 32.061 227.191 32.2712 227.411 32.5287L227.772 32.1544C227.51 31.8513 227.185 31.6077 226.821 31.4399C226.457 31.272 226.061 31.1839 225.66 31.1813C225.3 31.1756 224.943 31.2469 224.613 31.3903C224.283 31.5338 223.988 31.7461 223.747 32.013C223.493 32.2689 223.293 32.5728 223.158 32.907C223.023 33.2412 222.956 33.5989 222.961 33.9592C222.956 34.3148 223.022 34.6677 223.155 34.9976C223.287 35.3274 223.484 35.6275 223.734 35.8805C223.976 36.1468 224.271 36.3587 224.601 36.5021C224.931 36.6455 225.288 36.7171 225.647 36.7123C226.061 36.7079 226.47 36.6116 226.842 36.4304C227.215 36.2492 227.542 35.9875 227.801 35.6643L227.448 35.3524C227.234 35.6176 226.965 35.8325 226.658 35.982C226.352 36.1315 226.017 36.2118 225.676 36.2174V36.1966ZM232.684 36.1966C232.395 36.1991 232.11 36.1416 231.845 36.0277C231.58 35.9139 231.342 35.7462 231.145 35.5354C230.936 35.3192 230.773 35.0639 230.663 34.784C230.554 34.5042 230.502 34.2055 230.509 33.9052V33.9052C230.493 33.3084 230.714 32.7296 231.124 32.2958C231.315 32.0834 231.549 31.9145 231.811 31.8004C232.073 31.6863 232.356 31.6298 232.642 31.6346C232.98 31.6513 233.311 31.7375 233.615 31.8877C233.918 32.038 234.187 32.2491 234.405 32.5079L234.767 32.1336C234.505 31.8301 234.181 31.5862 233.816 31.4183C233.452 31.2505 233.056 31.1626 232.655 31.1605C232.295 31.1553 231.938 31.2268 231.608 31.3703C231.279 31.5137 230.983 31.7257 230.742 31.9922C230.492 32.2479 230.296 32.5503 230.164 32.8822C230.032 33.2141 229.967 33.5688 229.972 33.926V33.926C229.967 34.2842 230.033 34.6399 230.167 34.9721C230.301 35.3043 230.501 35.6061 230.754 35.8597C230.996 36.1256 231.292 36.3372 231.621 36.4806C231.951 36.6239 232.307 36.6958 232.667 36.6915C233.081 36.6877 233.49 36.5917 233.862 36.4104C234.235 36.2291 234.562 35.9672 234.821 35.6435L234.472 35.3316C234.258 35.6021 233.986 35.8218 233.677 35.9749C233.368 36.1281 233.029 36.2109 232.684 36.2174V36.1966ZM237.994 35.8223V31.2478H237.487V36.5709H237.994L241.654 32.0213V36.5709H242.161V31.2853H241.654L237.994 35.8223ZM247.143 31.2478C246.617 31.2215 246.099 31.3821 245.679 31.7011C245.504 31.8369 245.362 32.0116 245.265 32.2115C245.168 32.4114 245.119 32.631 245.122 32.8531V32.8531C245.112 33.2313 245.247 33.599 245.501 33.8802C245.788 34.1986 246.181 34.4024 246.607 34.4541L244.943 36.5709H245.596L247.181 34.4916H249.227V36.5709H249.734V31.2853L247.143 31.2478ZM249.222 34.0133H247.143C246.759 34.0347 246.379 33.9247 246.066 33.7014C245.94 33.6033 245.838 33.477 245.77 33.3325C245.701 33.1881 245.667 33.0296 245.671 32.8697C245.667 32.7075 245.702 32.5468 245.775 32.4017C245.847 32.2566 245.954 32.1317 246.087 32.038C246.395 31.8138 246.771 31.7022 247.151 31.7219H249.231L249.222 34.0133Z" fill="#3C4B63"/>
<path d="M59.6058 14.8837H50.9143V7.33996H46.4895V26.4696H50.9143V18.6306H59.6058V26.4738H64.0431V7.34412H59.6058V14.8837ZM75.026 7.33996L66.5008 26.4696H71.0379L72.7429 22.3692H81.6091L83.31 26.4696H87.9552L79.4009 7.33996H75.026ZM74.1402 19.0132L77.1843 11.6899L80.216 19.0132H74.1402ZM124.406 18.4934H133.288V15.0501H124.406V10.8914H134.461V7.33996H120.006V26.4696H134.819V22.9182H124.422L124.406 18.4934ZM180.069 8.17584C178.668 7.58844 177.158 7.30496 175.64 7.34412H167.347V26.4738H171.772V21.209H175.627C177.15 21.2499 178.664 20.9664 180.069 20.3773C181.239 19.8791 182.237 19.0475 182.938 17.986C183.629 16.8819 183.98 15.5993 183.949 14.2973C183.984 12.9858 183.632 11.6928 182.938 10.5795C182.24 9.51244 181.242 8.67603 180.069 8.17584ZM178.443 16.7177C177.769 17.2999 176.746 17.591 175.382 17.591H171.772V10.9372H175.382C176.746 10.9372 177.769 11.2283 178.443 11.8105C178.784 12.1192 179.053 12.5007 179.227 12.9267C179.402 13.3528 179.479 13.8126 179.453 14.2724C179.479 14.7296 179.401 15.1868 179.226 15.61C179.051 16.0333 178.784 16.4118 178.443 16.7177ZM191.052 18.4934H199.93V15.0501H191.052V10.8914H201.107V7.33996H186.648V26.4696H201.461V22.9182H191.064L191.052 18.4934ZM162.311 17.3706C161.758 16.9825 161.144 16.6901 160.494 16.5056C160.826 16.346 161.142 16.1552 161.438 15.9358C162.007 15.519 162.465 14.9679 162.769 14.3316C163.074 13.6953 163.217 12.9935 163.185 12.2887C163.215 11.5698 163.06 10.8552 162.735 10.2135C162.409 9.57184 161.924 9.02478 161.326 8.62497C160.078 7.7683 158.357 7.33996 156.136 7.33996H147.216V26.4696H156.656C159.076 26.4696 160.92 25.9914 162.187 25.0349C162.802 24.582 163.297 23.985 163.629 23.2962C163.96 22.6074 164.117 21.8479 164.087 21.0842C164.125 20.3662 163.982 19.6501 163.672 19.0014C163.362 18.3526 162.894 17.792 162.311 17.3706V17.3706ZM151.624 10.6211H155.753C156.53 10.5727 157.3 10.7865 157.941 11.2283C158.192 11.4394 158.389 11.707 158.517 12.0091C158.645 12.3112 158.7 12.6393 158.677 12.9666C158.699 13.2932 158.644 13.6205 158.516 13.9218C158.388 14.2231 158.191 14.49 157.941 14.7007C157.298 15.1351 156.527 15.3416 155.753 15.2871H151.624V10.6211ZM158.814 22.5938C158.124 23.0387 157.308 23.2488 156.489 23.1926H151.624V18.3562H156.489C157.307 18.3007 158.121 18.506 158.814 18.9425C159.083 19.1534 159.296 19.4272 159.433 19.7398C159.571 20.0525 159.63 20.3942 159.604 20.7349C159.632 21.0854 159.574 21.4374 159.436 21.761C159.299 22.0846 159.085 22.3703 158.814 22.5938V22.5938ZM241.745 7.33996C240.244 7.29993 238.752 7.5836 237.37 8.17168C236.191 8.68651 235.189 9.53688 234.489 10.617C233.782 11.7716 233.427 13.1066 233.466 14.4595C233.428 15.7628 233.76 17.05 234.422 18.1732C235.076 19.2293 236.039 20.0595 237.179 20.5519L237.516 20.6933L233.52 26.4572H238.194L241.575 21.3712H245.625V26.4738H250V7.34412L241.745 7.33996ZM245.625 17.8821H241.745C240.506 17.8821 239.568 17.5813 238.93 16.9797C238.599 16.6432 238.343 16.2408 238.178 15.7987C238.013 15.3566 237.944 14.8847 237.973 14.4138C237.973 13.2605 238.306 12.3941 238.972 11.8146C239.637 11.2352 240.598 10.9441 241.853 10.9413H245.625V17.8821ZM111.867 21.209L105.334 18.0401V7.33996H100.793V18.0276L94.2181 21.209V7.33996H89.7018V24.8062L92.9414 26.8398L103.051 21.9534L113.115 26.8398L116.359 24.8062V7.33996H111.867V21.209ZM217.571 11.8604L207.516 6.97816L204.268 9.00757V26.4738H208.763V12.6173L215.309 15.8028V26.4904H219.825V15.8028L226.404 12.6256V26.4738H230.92V9.00757L227.681 6.974L217.571 11.8604Z" fill="#3C4B63"/>
<mask id="mask0_21_2" style="mask-type:alpha" maskUnits="userSpaceOnUse" x="0" y="0" width="35" height="44">
<path d="M34.1007 5.45066L31.4003 0H2.70602L0 5.45066L12.7186 21.6221L0 37.7991L2.70602 43.2497H31.4003L34.1007 37.7991L21.3821 21.6276L34.1007 5.45066ZM24.408 6.75656L17.0521 16.1127L9.69721 6.75656H24.408ZM9.69721 36.4909L17.0521 27.137L24.408 36.4909H9.69721Z" fill="white"/>
</mask>
<g mask="url(#mask0_21_2)">
<rect x="-3.32666" y="-2.49524" width="40.3387" height="50.7352" fill="white"/>
<path d="M26.5652 6.33362C26.2691 5.82584 25.8757 5.38145 25.4077 5.02588C24.9396 4.67031 24.406 4.41054 23.8374 4.26144C23.2688 4.11234 22.6764 4.07684 22.0941 4.15696C21.5117 4.23709 20.9509 4.43127 20.4437 4.72839C19.9947 5.01329 19.5957 5.37015 19.2627 5.78468C19.2453 5.80146 19.2241 5.81367 19.2009 5.8202C19.1776 5.82673 19.1531 5.82739 19.1296 5.82211C18.0995 5.69663 17.0568 5.91599 16.1645 6.4459C14.9169 7.20277 14.3597 8.30481 13.8689 9.5316C13.8647 9.54754 13.8561 9.56196 13.844 9.57319L13.7359 9.7021C12.9041 10.7376 12.2762 11.7814 12.193 13.1247C12.1362 14.0408 12.3444 14.9539 12.7928 15.7548C13.2412 16.5557 13.9108 17.2105 14.7215 17.6409C15.1894 17.8849 15.6958 18.0467 16.2186 18.1192C16.4889 18.2 16.7683 18.2461 17.0503 18.2564C17.6391 18.3868 18.252 18.3581 18.826 18.1732C19.9464 17.8539 20.9028 17.1192 21.5 16.1189C21.7277 15.6911 21.8982 15.2353 22.0074 14.7632C22.0135 14.7393 22.0255 14.7173 22.0422 14.6992C22.0588 14.681 22.0798 14.6673 22.103 14.6592L22.4315 14.5511C23.5368 14.2485 24.5415 13.6571 25.3426 12.8377C26.1049 11.9425 26.6791 10.903 27.031 9.78112C27.397 8.73314 27.11 7.25683 26.5652 6.33362Z" fill="#3BA4DC"/>
<path d="M25.4885 41.9354C25.8224 40.6763 25.6617 39.3371 25.0393 38.1927C24.7141 37.6139 24.2778 37.1051 23.7554 36.6955C23.233 36.2858 22.6348 35.9834 21.9952 35.8056C21.4194 35.669 20.8249 35.6296 20.2361 35.6892C20.2095 35.6931 20.1823 35.6897 20.1574 35.6795C20.1325 35.6692 20.1109 35.6525 20.0947 35.631C19.3911 34.7173 18.406 34.061 17.2918 33.7637C15.7282 33.3479 14.4099 33.7637 13.0542 34.3418C13.0377 34.3455 13.0207 34.3455 13.0043 34.3418H12.813C11.345 34.4915 10.035 34.7909 8.89554 35.7807C8.1288 36.4485 7.56938 37.3219 7.28343 38.2977C6.99749 39.2734 6.99699 40.3107 7.28199 41.2867C7.44915 41.8409 7.7093 42.3626 8.05134 42.8295V42.8295C8.19119 43.101 8.36442 43.3538 8.56701 43.5823C8.56701 43.5823 8.56701 43.5823 8.56701 43.5823C8.91876 44.1525 9.41711 44.6178 10.01 44.9297C11.1364 45.5741 12.4672 45.7617 13.7279 45.4536C14.2448 45.3025 14.7397 45.0844 15.2 44.8049C15.2235 44.7918 15.25 44.7849 15.277 44.7849C15.3039 44.7849 15.3304 44.7918 15.3539 44.8049L15.6949 44.9837C16.794 45.6251 18.0445 45.961 19.3171 45.9568C20.6221 45.8668 21.8953 45.5131 23.0598 44.9172C24.2201 44.4722 25.1724 43.0874 25.4885 41.9354Z" fill="#3BA4DC"/>
<path d="M9.6773 1.47629C9.20149 0.843723 8.5594 0.355674 7.82256 0.0665177C7.79587 0.0558462 7.77294 0.0375142 7.75666 0.0138321C7.74038 -0.00984998 7.73148 -0.0378221 7.73107 -0.0665582C7.74064 -0.823071 7.54366 -1.56786 7.16133 -2.22073C7.05722 -2.39438 6.94192 -2.56107 6.81617 -2.71976C6.79489 -2.74389 6.78307 -2.77492 6.7829 -2.80709C6.78213 -3.58921 6.57714 -4.35756 6.18822 -5.03612C5.5918 -6.03799 4.63532 -6.77432 3.51422 -7.09464C2.93894 -7.25249 2.33809 -7.2948 1.74637 -7.21914C1.15464 -7.14348 0.58377 -6.95134 0.0667181 -6.65382C-0.935678 -6.0522 -1.67163 -5.09174 -1.9918 -3.96735C-2.27459 -2.8362 -2.55738 -1.70922 -2.82353 -0.578069C-3.30177 1.31826 -4.07112 3.34767 -3.28098 5.24401C-3.02105 5.87387 -2.63333 6.44299 -2.14229 6.91541C-1.65126 7.38784 -1.06759 7.75329 -0.428158 7.9887C-0.401351 7.99805 -0.378104 8.01549 -0.361621 8.0386C-0.20796 8.25948 -0.0324092 8.46429 0.162366 8.64992C1.73849 10.1761 4.07979 10.4173 6.07177 9.65215C7.08524 9.31173 8.02302 8.77788 8.8331 8.08019C9.62369 7.34602 10.1989 6.40995 10.4966 5.37292C10.6839 4.70546 10.7073 4.00261 10.5646 3.32418C10.422 2.64575 10.1176 2.01181 9.6773 1.47629Z" fill="#E32027"/>
<path d="M22.3195 -1.17287C22.2986 -2.1025 21.9948 -3.00367 21.4488 -3.75629C20.9027 -4.50891 20.1402 -5.07725 19.263 -5.38556H19.238C18.3702 -5.91684 17.367 -6.18508 16.3499 -6.15777C15.3328 -6.13046 14.3454 -5.80878 13.5074 -5.23169C13.0609 -4.9242 12.6532 -4.56396 12.2931 -4.15876C12.274 -4.13804 12.2494 -4.12315 12.2222 -4.11579C12.1949 -4.10843 12.1662 -4.10891 12.1392 -4.11718C12.0468 -4.14981 11.9524 -4.1762 11.8564 -4.19619C11.2805 -4.35188 10.6795 -4.39235 10.0879 -4.31528C9.49632 -4.23821 8.92575 -4.04511 8.40894 -3.74706C7.43087 -3.12234 6.70252 -2.17476 6.35042 -1.0689C5.60602 1.08942 6.72885 3.55133 8.5836 4.75317C8.60494 4.765 8.62122 4.78423 8.62934 4.80724C8.91424 5.36779 9.30817 5.86582 9.78805 6.27215C10.2679 6.67847 10.8241 6.98491 11.4239 7.1735C13.5033 7.84719 15.3705 6.80338 17.1878 5.96749L18.6225 5.30627C19.2617 5.00603 19.8288 4.57169 20.2851 4.03279C20.7415 3.49389 21.0765 2.86305 21.2674 2.18314C21.3222 1.98931 21.3638 1.79203 21.3922 1.59262C21.3957 1.56823 21.4058 1.54524 21.4213 1.52608C22.0328 0.762257 22.3514 -0.194909 22.3195 -1.17287V-1.17287Z" fill="#E92064"/>
<path d="M29.5264 -8.18005C28.9318 -9.18265 27.9744 -9.9182 26.8524 -10.2344C25.691 -10.5476 24.4528 -10.3876 23.4091 -9.78944V-9.78944L22.8393 -9.34863C22.8169 -9.33269 22.79 -9.32413 22.7624 -9.32413C22.7348 -9.32413 22.708 -9.33269 22.6855 -9.34863V-9.34863C22.67 -9.35603 22.6561 -9.36647 22.6446 -9.37933C22.6332 -9.39218 22.6245 -9.4072 22.6189 -9.42348L22.569 -9.5524C22.1199 -10.6752 21.5918 -11.5984 20.4897 -12.2306C19.4439 -12.8189 18.2087 -12.9727 17.0505 -12.6589C15.9268 -12.3462 14.9682 -11.6097 14.3765 -10.6045C13.8484 -9.60646 13.4866 -8.25075 13.9232 -7.15287C14.4181 -5.90528 14.6968 -4.55789 15.2998 -3.36852C15.6145 -2.76184 16.048 -2.22464 16.5746 -1.78885C17.1011 -1.35306 17.7098 -1.02758 18.3647 -0.83176V-0.83176C18.9115 -0.230679 19.6184 0.202087 20.4024 0.415828C21.887 0.831691 23.0057 0.449097 24.3032 -0.062414C25.2181 -0.415897 26.1704 -0.744428 27.0312 -1.1894C27.5801 -1.48734 28.0853 -1.85958 28.5325 -2.2956C29.3102 -3.02336 29.5805 -3.77191 29.9797 -4.72839C30.3789 -5.68488 30.0421 -7.29427 29.5264 -8.18005Z" fill="#904098"/>
<path d="M27.0602 -2.33311C26.5325 -2.49588 25.982 -2.57173 25.43 -2.55767C25.3983 -2.5563 25.3672 -2.56666 25.3426 -2.58678C24.5414 -3.24844 23.5331 -3.60758 22.494 -3.60149C21.1991 -3.57784 19.9607 -3.06703 19.0257 -2.17092C18.6972 -1.87981 18.3853 -1.57208 18.0651 -1.27681C16.3559 0.328416 16.3267 3.4557 18.0651 5.05262C18.5269 5.48322 19.0713 5.81576 19.6652 6.03019C20.2592 6.24461 20.8904 6.33647 21.5209 6.3002H21.5749C21.7205 6.35011 21.866 6.39169 22.0157 6.42912C23.0336 6.62569 24.081 6.61154 25.0931 6.38753C25.1081 6.38326 25.1239 6.38326 25.1389 6.38753C27.2764 6.76597 29.7134 5.29382 30.1874 3.14796C30.4697 2.00756 30.3024 0.802269 29.7202 -0.218141C29.138 -1.23855 28.1855 -1.99585 27.0602 -2.33311V-2.33311Z" fill="#66499D"/>
<path d="M36.1219 0.673557C36.0339 -0.0788415 35.7721 -0.800444 35.3571 -1.43416C34.942 -2.06789 34.3852 -2.59634 33.7307 -2.97772C33.4774 -3.11559 33.2131 -3.23242 32.9406 -3.32704C32.9234 -3.33116 32.9076 -3.33977 32.8948 -3.35199C32.8094 -3.43231 32.7191 -3.50731 32.6245 -3.57656C31.6057 -4.39997 30.6118 -4.62869 29.3267 -4.73682C28.2034 -4.81371 27.0756 -4.6826 25.9998 -4.35006C24.8874 -4.01928 23.9374 -3.28717 23.3342 -2.2957C22.7312 -1.251 22.5653 -0.0104571 22.8726 1.15596C23.1941 2.2825 23.9393 3.24081 24.9519 3.82995C25.2078 3.96439 25.4733 4.07976 25.7462 4.17512C25.7687 4.18297 25.7889 4.1964 25.8048 4.21416C25.8208 4.23192 25.832 4.25342 25.8374 4.27667C25.8428 4.29991 25.8422 4.32415 25.8357 4.34711C25.8292 4.37008 25.817 4.39103 25.8002 4.408L25.7545 4.45375C24.9307 5.30328 24.4621 6.43521 24.4445 7.61846C24.4549 8.8032 24.9245 9.93772 25.7545 10.7832C26.596 11.6192 27.733 12.0899 28.9192 12.0931C30.1034 12.0802 31.237 11.611 32.0839 10.7832C32.9308 9.91866 33.6797 8.96332 34.3171 7.93452C34.7258 7.2929 35.0317 6.59132 35.2237 5.85521C35.3412 5.35977 35.3832 4.84945 35.3484 4.34147L35.3983 4.26245C36.0444 3.1847 36.2999 1.91745 36.1219 0.673557V0.673557Z" fill="#4554A5"/>
<path d="M36.5295 7.63517C35.9291 6.61106 34.947 5.86692 33.7986 5.56599C32.6502 5.26506 31.4294 5.43191 30.4039 6.02994C29.7033 6.46973 29.1175 7.06984 28.6947 7.78072C28.6842 7.79904 28.6698 7.81486 28.6525 7.82706C28.6353 7.83927 28.6156 7.84758 28.5949 7.85142L28.2788 7.90132C27.5704 8.04064 26.8981 8.32371 26.3035 8.73305C25.8104 9.05584 25.364 9.44484 24.9768 9.88915C24.956 9.91442 24.9262 9.93078 24.8937 9.93489C24.3089 10.0187 23.7449 10.2105 23.2302 10.5005C22.2064 11.1001 21.4623 12.0815 21.1614 13.2292C20.8604 14.3769 21.0272 15.5971 21.625 16.622C22.2443 17.6078 23.191 18.344 24.299 18.7013C25.3218 19.0739 26.427 19.1596 27.4949 18.9492C28.5629 18.7389 29.553 18.2404 30.3581 17.5077C30.5827 17.3104 30.7862 17.0902 30.9653 16.8507C30.9788 16.8339 30.9959 16.8204 31.0153 16.811C31.0348 16.8017 31.056 16.7968 31.0776 16.7966C31.4556 16.7877 31.8312 16.7333 32.1962 16.6344C33.2352 16.3735 34.1821 15.831 34.9326 15.0666C35.9851 13.963 36.6982 12.5801 36.987 11.0827C37.1824 9.8642 37.1741 8.73305 36.5295 7.63517Z" fill="#5B70B5"/>
<path d="M25.1682 17.7823C24.9686 16.7301 24.008 15.6323 23.1139 15.1083C22.0674 14.5096 20.827 14.3482 19.6622 14.6592C18.9435 14.8807 18.2821 15.2568 17.7243 15.7612C17.7039 15.7814 17.6776 15.7946 17.6493 15.7991C17.6209 15.8036 17.5919 15.799 17.5663 15.7861C17.3458 15.678 17.1254 15.5824 16.9009 15.495C16.8792 15.4866 16.8594 15.4738 16.8427 15.4576C16.7636 15.3661 16.6846 15.2705 16.6098 15.1748C15.9299 14.2036 15.0615 13.379 14.0564 12.7503V12.7503C13.8456 12.1541 13.4997 11.6146 13.0458 11.1742C12.2054 10.3367 11.0676 9.86574 9.88111 9.86426C8.70407 9.91102 7.58215 10.3754 6.7164 11.1742C6.04808 11.6778 5.46533 12.2858 4.99057 12.9749C4.40178 13.9787 4.20024 15.163 4.4239 16.3051C4.64755 17.4471 5.28096 18.4679 6.20489 19.1754C6.98644 19.749 7.88085 20.1501 8.82898 20.3523L9.35297 20.4771L9.59833 20.6476C9.97072 21.1958 10.4016 21.702 10.8833 22.1572C11.1079 22.3568 11.3366 22.5522 11.5778 22.7352C11.6032 22.7549 11.6209 22.7829 11.6277 22.8142C11.7625 23.4717 12.0354 24.093 12.4283 24.6371C12.8211 25.1813 13.325 25.6358 13.9067 25.9706C14.6641 26.396 15.5194 26.6163 16.3881 26.6098C17.2568 26.6032 18.1087 26.37 18.8596 25.9332C19.1985 25.727 19.515 25.4859 19.8036 25.2137L20.2195 25.0058C20.9867 24.8552 21.7224 24.5739 22.3944 24.1741C23.3106 23.6334 24.0791 22.8749 24.6318 21.9659C25.3295 20.6882 25.5211 19.1947 25.1682 17.7823V17.7823Z" fill="#08BCD3"/>
<path d="M18.9344 19.7243C18.334 18.7002 17.3519 17.956 16.2035 17.6551C15.0551 17.3542 13.8343 17.521 12.8088 18.1191C11.8814 18.7137 10.954 19.6661 10.7503 20.7931C10.6879 21.159 10.6338 21.5291 10.5881 21.8951C10.5855 21.919 10.5769 21.9418 10.5631 21.9615C10.5493 21.9811 10.5307 21.9969 10.5091 22.0074C9.67016 22.3615 8.89475 22.8504 8.2135 23.4546C7.71825 23.9004 7.30696 24.4314 6.99918 25.0224C6.67544 25.6583 6.46171 26.3445 6.36707 27.0518L6.38786 26.8813C6.37513 26.9955 6.34277 27.1066 6.29221 27.2098C5.90546 28.2412 6.20904 29.7466 6.7455 30.6615C7.34445 31.686 8.32552 32.4309 9.47327 32.7327C10.621 33.0344 11.8416 32.8683 12.867 32.2709C13.7471 31.7052 14.4255 30.8754 14.8049 29.9004C14.8116 29.883 14.8216 29.867 14.8344 29.8534C14.8473 29.8399 14.8627 29.829 14.8798 29.8214C15.238 29.679 15.5855 29.5109 15.9194 29.3182C16.8839 28.7445 17.699 27.9508 18.2982 27.0019C19.0509 25.8125 19.2172 24.5067 19.3753 23.1468C19.6553 21.9907 19.4984 20.7718 18.9344 19.7243V19.7243Z" fill="#009888"/>
<path d="M28.5616 25.3677C28.0423 25.0417 27.4543 24.841 26.8441 24.7813C26.8212 24.7793 26.799 24.7718 26.7795 24.7595C26.7599 24.7472 26.7436 24.7305 26.7318 24.7106C26.3055 23.9129 25.6588 23.2547 24.8688 22.8143C23.8499 22.2196 22.7271 22.178 21.6251 22.0408C21.2092 21.9826 20.7684 21.9493 20.3317 21.8994C20.3089 21.8974 20.2872 21.8887 20.2693 21.8744C19.5196 21.3034 18.6 21.0003 17.6577 21.0136C16.5183 21.0635 15.2665 21.4295 14.493 22.3236C13.6281 23.2296 13.1289 24.4234 13.0916 25.6754C13.0973 26.9401 13.6008 28.1517 14.493 29.0481C15.1396 29.6768 15.942 30.1218 16.8177 30.3372C17.1296 30.3996 17.4581 30.4246 17.7742 30.4703L18.1484 30.5161C18.182 30.5209 18.2127 30.5372 18.2355 30.5622C18.2583 30.5873 18.2716 30.6195 18.2732 30.6533C18.2732 30.8363 18.2982 31.0193 18.3231 31.2064C18.4291 31.9849 18.7083 32.7296 19.1401 33.386C19.5719 34.0423 20.1454 34.5935 20.8183 34.9991C21.7361 35.5362 22.7709 35.8417 23.8333 35.889H24.0038C24.0322 35.8918 24.0594 35.9018 24.0828 35.9181L24.324 36.0928C24.8088 36.4202 25.3461 36.6621 25.9126 36.8081C28.6115 37.594 31.3105 35.7643 32.1505 33.1859C33.1569 30.1085 31.061 26.9438 28.5616 25.3677Z" fill="#279B47"/>
<path d="M36.2178 36.8704C35.7422 36.0942 35.0635 35.4628 34.2549 35.0447H34.23L34.101 34.9324C33.0447 34.1007 31.5185 33.6599 30.2002 34.134C29.7452 34.2786 29.3074 34.4724 28.8944 34.712C28.7697 34.791 28.6532 34.8742 28.541 34.9615C28.5147 34.9835 28.4816 34.9956 28.4474 34.9956C28.4132 34.9956 28.38 34.9835 28.3538 34.9615C28.2582 34.87 28.1584 34.7786 28.0544 34.6912C28.0363 34.6761 28.0233 34.6558 28.017 34.633C27.7187 33.8061 27.24 33.056 26.6155 32.4373C25.9058 31.7574 25.0534 31.2445 24.1203 30.936C24.0932 30.9272 24.0699 30.9096 24.0538 30.8861C23.9287 30.7063 23.7897 30.5366 23.6379 30.3787C22.7982 29.5402 21.66 29.0692 20.4732 29.0692C19.2865 29.0692 18.1483 29.5402 17.3085 30.3787C16.4785 31.2242 16.0089 32.3587 15.9985 33.5434C16.0208 34.5287 16.2898 35.4926 16.7809 36.347C17.2721 37.2013 17.9696 37.9189 18.8098 38.434C19.0586 38.5986 19.3233 38.7379 19.5999 38.8499C19.617 38.8574 19.6324 38.8683 19.6452 38.8819C19.6581 38.8954 19.6681 38.9114 19.6748 38.9289C19.9955 39.6613 20.4876 40.306 21.1095 40.8086C21.1256 40.8238 21.1384 40.8422 21.1469 40.8626C21.3936 41.4813 21.758 42.0462 22.2198 42.5261C22.6482 42.9526 23.1515 43.2966 23.7045 43.5408C23.7246 43.5498 23.7419 43.5642 23.7544 43.5824C24.2319 44.2446 24.8319 44.8092 25.5218 45.2458C26.9025 46.0775 28.5451 45.9528 30.0963 45.9403C30.9736 45.961 31.8461 45.8055 32.6622 45.4829C33.2912 45.2254 33.8545 44.8303 34.3107 44.3265C34.767 43.8228 35.1046 43.2232 35.2987 42.5718C35.3045 42.5477 35.3175 42.5259 35.3361 42.5094C35.9859 41.9337 36.4504 41.1783 36.6711 40.3386C36.8297 39.7594 36.8713 39.1544 36.7935 38.5589C36.7156 37.9634 36.5199 37.3894 36.2178 36.8704V36.8704Z" fill="#8AC249"/>
<path d="M24.3615 35.0571C23.7044 34.163 23.0432 33.2689 22.3778 32.3748C21.4712 31.1563 20.6062 30.1749 19.0509 29.7174C18.2718 29.5105 17.4618 29.4457 16.6597 29.5262C15.4083 29.5536 14.1686 29.7724 12.9834 30.1749C12.3719 30.4041 11.7841 30.6924 11.2285 31.0357C11.2105 31.0449 11.1905 31.0496 11.1703 31.0496C11.1501 31.0496 11.1301 31.0449 11.1121 31.0357C10.0152 30.6984 8.85105 30.6426 7.72695 30.8735C5.33989 31.3144 3.56832 33.2814 2.83224 35.5104C2.51702 36.6547 2.66888 37.8773 3.25447 38.9097C3.84006 39.9421 4.81149 40.6998 5.95537 41.0164C6.55594 41.1626 7.17957 41.1878 7.78999 41.0908C8.4004 40.9937 8.98542 40.7761 9.511 40.4509C9.53076 40.4426 9.55196 40.4384 9.57338 40.4384C9.59479 40.4384 9.61599 40.4426 9.63576 40.4509C10.7174 40.842 11.8929 40.8928 13.0042 40.5964C14.0156 40.3039 14.9321 39.7503 15.6616 38.9912L15.8446 38.7999C15.8578 38.7834 15.8746 38.7701 15.8937 38.761C15.9128 38.7518 15.9336 38.7471 15.9548 38.7471C15.9759 38.7471 15.9968 38.7518 16.0159 38.761C16.035 38.7701 16.0517 38.7834 16.065 38.7999L16.6347 39.5734C17.35 40.5424 18.1027 41.2992 19.3087 41.6527C20.4767 41.9498 21.7146 41.7766 22.7562 41.1703C23.7694 40.5818 24.5148 39.6232 24.8355 38.4963C25.0643 37.4026 25.0643 36.0053 24.3615 35.0571Z" fill="#CEDD37"/>
<path d="M11.8105 30.7114C11.4947 29.5668 10.7373 28.5944 9.70486 28.0079C8.67237 27.4215 7.44928 27.2691 6.30444 27.5841C5.631 27.7919 5.01331 28.1493 4.49764 28.6297C3.98198 29.11 3.58172 29.7009 3.32686 30.3579C3.31917 30.3833 3.30303 30.4054 3.28112 30.4203C2.89852 30.6906 2.53672 30.9984 2.1874 31.2936C1.41978 31.9347 0.751306 32.6858 0.203734 33.5227C-0.498049 34.7307 -0.822462 36.1211 -0.727799 37.5149C-0.688887 38.2135 -0.599941 38.9084 -0.461646 39.5943C-0.461646 39.5943 -0.461646 39.6192 -0.461646 39.6275C-0.541117 40.2321 -0.50299 40.8464 -0.349364 41.4365C-0.0331461 42.5585 0.7024 43.5159 1.705 44.1105C2.73596 44.6847 3.94894 44.8383 5.09048 44.5392C6.23202 44.24 7.2138 43.5113 7.83065 42.5053C8.66238 41.2577 8.69981 39.7065 8.42118 38.276C8.39623 38.1595 8.37128 38.0431 8.34217 37.9266C8.334 37.8962 8.33658 37.8639 8.34945 37.8351C8.36233 37.8063 8.38472 37.7828 8.41286 37.7686L8.86199 37.5316C9.59722 37.1402 10.2364 36.5905 10.7334 35.9222C11.3018 35.1951 11.6947 34.3466 11.8815 33.4428C12.0683 32.539 12.044 31.6043 11.8105 30.7114V30.7114Z" fill="#8AC249"/>
<path d="M13.2703 8.91182C13.0057 8.03432 12.524 7.23776 11.8698 6.59589C11.2156 5.95401 10.41 5.48757 9.52759 5.23975C7.98119 4.83246 6.33795 5.02561 4.92814 5.78037C4.19847 6.23545 3.58253 6.85138 3.12746 7.58106C3.11532 7.59691 3.09966 7.60972 3.08171 7.61848C2.8553 7.74436 2.64452 7.89651 2.45376 8.07177V8.07177C1.97295 8.38396 1.57941 8.81327 1.31014 9.31936C1.01079 9.82715 0.814724 10.3891 0.733194 10.9729C0.651665 11.5566 0.686282 12.1508 0.835057 12.7212C0.983832 13.2915 1.24383 13.8269 1.60012 14.2965C1.95642 14.7661 2.40198 15.1606 2.91121 15.4575C3.89681 15.9773 5.27747 16.3599 6.35871 15.9066C6.5708 15.8193 6.77457 15.732 6.97419 15.6405C7.0106 15.6281 7.05006 15.6281 7.08647 15.6405C7.26831 15.7156 7.4561 15.7754 7.64789 15.8193C8.79183 16.1088 10.0034 15.9451 11.0294 15.3623C12.0555 14.7795 12.8167 13.8228 13.1539 12.692C13.5724 11.4724 13.613 10.1549 13.2703 8.91182Z" fill="#66499D"/>
</g>
</svg>
