<svg width="26" height="37" viewBox="0 0 26 37" fill="none" xmlns="http://www.w3.org/2000/svg">
<path opacity="0.61" fill-rule="evenodd" clip-rule="evenodd" d="M26 25.5322C13.2697 25.876 7.8269 29.0051 13 36.9999C18.0724 36.2576 22.4714 35.1785 26 33.9748V25.5322Z" fill="url(#paint0_linear_31_6)"/>
<mask id="mask0_31_6" style="mask-type:alpha" maskUnits="userSpaceOnUse" x="0" y="0" width="26" height="37">
<path d="M12.95 0C5.7905 0 0 5.7905 0 12.95C0 22.6625 12.95 37 12.95 37C12.95 37 25.9 22.6625 25.9 12.95C25.9 5.7905 20.1095 0 12.95 0ZM12.95 17.575C10.397 17.575 8.325 15.503 8.325 12.95C8.325 10.397 10.397 8.325 12.95 8.325C15.503 8.325 17.575 10.397 17.575 12.95C17.575 15.503 15.503 17.575 12.95 17.575Z" fill="black"/>
</mask>
<g mask="url(#mask0_31_6)">
<path d="M20.5982 7.39202C20.3624 6.98756 20.049 6.63359 19.6762 6.35036C19.3034 6.06714 18.8783 5.86022 18.4254 5.74146C17.9725 5.62269 17.5006 5.59441 17.0368 5.65824C16.5729 5.72206 16.1262 5.87673 15.7222 6.1134C15.3646 6.34033 15.0468 6.62459 14.7815 6.95477C14.7677 6.96814 14.7508 6.97786 14.7323 6.98307C14.7138 6.98827 14.6943 6.98879 14.6755 6.98459C13.8549 6.88464 13.0244 7.05937 12.3137 7.48146C11.3199 8.08433 10.8761 8.96215 10.4852 9.93933C10.4818 9.95203 10.4749 9.96351 10.4653 9.97246L10.3792 10.0751C9.71669 10.9 9.2165 11.7314 9.15025 12.8013C9.10497 13.5311 9.27083 14.2584 9.62799 14.8963C9.98515 15.5343 10.5185 16.0559 11.1643 16.3987C11.537 16.593 11.9404 16.7219 12.3567 16.7796C12.5721 16.844 12.7947 16.8808 13.0192 16.889C13.4883 16.9928 13.9764 16.9699 14.4337 16.8227C15.3261 16.5684 16.0879 15.9831 16.5636 15.1863C16.7449 14.8456 16.8808 14.4825 16.9677 14.1065C16.9726 14.0874 16.9822 14.0699 16.9955 14.0555C17.0087 14.041 17.0254 14.0301 17.0439 14.0236L17.3056 13.9375C18.186 13.6965 18.9863 13.2255 19.6244 12.5728C20.2315 11.8597 20.6889 11.0317 20.9692 10.1381C21.2607 9.30333 21.0322 8.1274 20.5982 7.39202Z" fill="#3BA4DC"/>
<path d="M19.7403 35.7511C20.0063 34.7481 19.8783 33.6814 19.3826 32.7699C19.1235 32.3089 18.776 31.9036 18.3599 31.5773C17.9438 31.251 17.4673 31.0101 16.9578 30.8685C16.4992 30.7597 16.0256 30.7283 15.5566 30.7757C15.5354 30.7788 15.5138 30.7762 15.494 30.768C15.4741 30.7599 15.4569 30.7465 15.444 30.7294C14.8836 30.0016 14.0989 29.4789 13.2114 29.2421C11.9659 28.9108 10.9158 29.2421 9.83595 29.7025C9.82287 29.7055 9.80929 29.7055 9.7962 29.7025H9.64383C8.47452 29.8217 7.43108 30.0602 6.52346 30.8486C5.91272 31.3806 5.46712 32.0763 5.23935 32.8535C5.01159 33.6307 5.01119 34.4569 5.23821 35.2344C5.37136 35.6758 5.57858 36.0913 5.85102 36.4633V36.4633C5.96242 36.6795 6.1004 36.8809 6.26177 37.0629C6.26177 37.0629 6.26177 37.0629 6.26177 37.0629C6.54195 37.517 6.93891 37.8877 7.41121 38.1361C8.30842 38.6495 9.36843 38.7989 10.3726 38.5535C10.7843 38.4331 11.1785 38.2593 11.5452 38.0367C11.5639 38.0263 11.585 38.0208 11.6065 38.0208C11.6279 38.0208 11.649 38.0263 11.6678 38.0367L11.9394 38.1792C12.8149 38.69 13.811 38.9576 14.8246 38.9543C15.8641 38.8826 16.8783 38.6009 17.8058 38.1262C18.73 37.7717 19.4886 36.6687 19.7403 35.7511Z" fill="#3BA4DC"/>
<path d="M7.1462 3.52364C6.76719 3.01978 6.25574 2.63103 5.66882 2.4007C5.64757 2.3922 5.6293 2.3776 5.61634 2.35874C5.60337 2.33987 5.59627 2.31759 5.59595 2.2947C5.60358 1.69211 5.44667 1.09886 5.14213 0.578831C5.0592 0.440511 4.96736 0.307731 4.8672 0.181331C4.85025 0.16211 4.84083 0.137397 4.8407 0.111769C4.84009 -0.511213 4.67681 -1.12324 4.36701 -1.66373C3.89194 -2.46176 3.13007 -3.04827 2.23708 -3.30342C1.77885 -3.42915 1.30025 -3.46286 0.828916 -3.40259C0.357587 -3.34232 -0.0971337 -3.18928 -0.508985 -2.95229C-1.30743 -2.47307 -1.89365 -1.70803 -2.14867 -0.812418C-2.37392 0.0885814 -2.59917 0.986268 -2.81117 1.88727C-3.19211 3.39777 -3.80492 5.01426 -3.17554 6.52476C-2.9685 7.02647 -2.65967 7.4798 -2.26854 7.8561C-1.87742 8.2324 -1.41251 8.5235 -0.903172 8.71101C-0.881819 8.71846 -0.863301 8.73235 -0.850172 8.75076C-0.727776 8.92669 -0.587943 9.08983 -0.432797 9.2377C0.822639 10.4534 2.68757 10.6455 4.27426 10.036C5.08153 9.76485 5.8285 9.33962 6.47376 8.78389C7.10349 8.19909 7.56163 7.45347 7.79876 6.62745C7.94799 6.09579 7.96659 5.53594 7.85297 4.99555C7.73936 4.45515 7.49689 3.9502 7.1462 3.52364Z" fill="#E32027"/>
<path d="M17.2162 1.41309C17.1995 0.672603 16.9576 -0.045211 16.5226 -0.644703C16.0876 -1.2442 15.4803 -1.69689 14.7815 -1.94247H14.7617C14.0705 -2.36566 13.2714 -2.57933 12.4612 -2.55757C11.651 -2.53582 10.8645 -2.27958 10.197 -1.81991C9.84141 -1.57499 9.51664 -1.28804 9.22979 -0.965288C9.21455 -0.948784 9.19496 -0.936919 9.17328 -0.931059C9.1516 -0.925198 9.1287 -0.925581 9.10722 -0.932163C9.03363 -0.958153 8.95838 -0.97918 8.88197 -0.9951C8.42323 -1.11911 7.94451 -1.15135 7.47328 -1.08996C7.00205 -1.02857 6.54757 -0.874759 6.13591 -0.63735C5.35685 -0.139739 4.77669 0.615045 4.49623 1.4959C3.90329 3.21508 4.79766 5.17608 6.27504 6.13339C6.29204 6.14281 6.305 6.15813 6.31148 6.17646C6.53841 6.62295 6.85219 7.01966 7.23443 7.34331C7.61667 7.66696 8.05967 7.91105 8.53747 8.06127C10.1937 8.59789 11.681 7.76645 13.1286 7.10064L14.2714 6.57396C14.7805 6.3348 15.2322 5.98884 15.5957 5.55958C15.9593 5.13033 16.2261 4.62784 16.3782 4.08627C16.4218 3.93188 16.455 3.77473 16.4775 3.6159C16.4804 3.59647 16.4884 3.57816 16.5007 3.5629C16.9878 2.95448 17.2416 2.19206 17.2162 1.41309V1.41309Z" fill="#E92064"/>
<path d="M22.9568 -4.16792C22.4831 -4.96652 21.7205 -5.55241 20.8268 -5.80429C19.9017 -6.05373 18.9154 -5.92628 18.0841 -5.44986V-5.44986L17.6303 -5.09873C17.6124 -5.08604 17.5909 -5.07922 17.569 -5.07922C17.547 -5.07922 17.5256 -5.08604 17.5077 -5.09873V-5.09873C17.4953 -5.10463 17.4843 -5.11295 17.4752 -5.12319C17.4661 -5.13343 17.4591 -5.14538 17.4547 -5.15836L17.415 -5.26104C17.0572 -6.15542 16.6365 -6.89079 15.7587 -7.39429C14.9257 -7.86292 13.9418 -7.98545 13.0193 -7.73548C12.1242 -7.48641 11.3606 -6.8998 10.8893 -6.09911C10.4687 -5.30411 10.1805 -4.22423 10.5283 -3.34973C10.9225 -2.35598 11.1444 -1.28273 11.6247 -0.33536C11.8754 0.147885 12.2208 0.575787 12.6401 0.922909C13.0595 1.27003 13.5444 1.52929 14.066 1.68526V1.68526C14.5016 2.16405 15.0647 2.50876 15.6892 2.67901C16.8717 3.01026 17.7628 2.70551 18.7963 2.29807C19.525 2.01651 20.2836 1.75483 20.9693 1.40039C21.4065 1.16307 21.8089 0.866563 22.1651 0.519264C22.7845 -0.0604227 22.9998 -0.656672 23.3178 -1.41855C23.6358 -2.18042 23.3675 -3.46236 22.9568 -4.16792Z" fill="#904098"/>
<path d="M20.9925 0.489376C20.5722 0.359718 20.1336 0.299304 19.694 0.310501C19.6687 0.311596 19.6439 0.30334 19.6244 0.287314C18.9861 -0.239718 18.183 -0.525788 17.3553 -0.520935C16.3239 -0.502097 15.3375 -0.0952238 14.5927 0.618564C14.331 0.850438 14.0826 1.09556 13.8275 1.33075C12.4661 2.60937 12.4429 5.10037 13.8275 6.37237C14.1954 6.71536 14.629 6.98025 15.1021 7.15104C15.5752 7.32184 16.078 7.395 16.5802 7.36612H16.6233C16.7392 7.40587 16.8551 7.43899 16.9744 7.46881C17.7852 7.62538 18.6194 7.61411 19.4256 7.43568C19.4375 7.43228 19.4502 7.43228 19.4621 7.43568C21.1647 7.73712 23.1058 6.5645 23.4834 4.85525C23.7083 3.94687 23.575 2.98682 23.1113 2.17402C22.6475 1.36123 21.8889 0.758012 20.9925 0.489376V0.489376Z" fill="#66499D"/>
<path d="M28.2104 2.88419C28.1403 2.28488 27.9317 1.7101 27.6012 1.20531C27.2706 0.700533 26.8271 0.279601 26.3057 -0.0241805C26.1039 -0.134002 25.8934 -0.227065 25.6764 -0.30243C25.6627 -0.305712 25.6501 -0.312571 25.6399 -0.322305C25.5719 -0.386279 25.5 -0.446017 25.4246 -0.50118C24.613 -1.15705 23.8214 -1.33924 22.7978 -1.42537C21.903 -1.48662 21.0046 -1.38218 20.1478 -1.1173C19.2617 -0.853824 18.505 -0.270671 18.0245 0.519069C17.5442 1.35121 17.4121 2.33935 17.6568 3.26844C17.9129 4.16577 18.5065 4.9291 19.313 5.39838C19.5169 5.50546 19.7284 5.59736 19.9457 5.67331C19.9637 5.67957 19.9798 5.69027 19.9925 5.70441C20.0052 5.71855 20.0141 5.73568 20.0184 5.7542C20.0227 5.77272 20.0222 5.79202 20.017 5.81031C20.0119 5.8286 20.0022 5.84529 19.9888 5.85881L19.9524 5.89525C19.2961 6.57194 18.9229 7.47356 18.9089 8.41606C18.9172 9.35975 19.2912 10.2634 19.9524 10.9369C20.6226 11.6028 21.5283 11.9777 22.4732 11.9803C23.4164 11.97 24.3194 11.5962 24.994 10.9369C25.6686 10.2482 26.2651 9.48729 26.7728 8.66781C27.0983 8.15674 27.342 7.59791 27.4949 7.01156C27.5885 6.61693 27.622 6.21044 27.5943 5.80581L27.634 5.74288C28.1486 4.88441 28.3522 3.875 28.2104 2.88419V2.88419Z" fill="#4554A5"/>
<path d="M28.535 8.42937C28.0567 7.61363 27.2744 7.0209 26.3597 6.78119C25.445 6.54149 24.4725 6.67439 23.6557 7.15075C23.0977 7.50106 22.631 7.97906 22.2942 8.54531C22.2858 8.5599 22.2744 8.57249 22.2607 8.58222C22.2469 8.59194 22.2313 8.59856 22.2147 8.60162L21.963 8.64137C21.3987 8.75234 20.8632 8.97782 20.3895 9.30387C19.9968 9.56098 19.6412 9.87084 19.3328 10.2247C19.3162 10.2449 19.2925 10.2579 19.2666 10.2612C18.8008 10.3279 18.3515 10.4807 17.9416 10.7117C17.1261 11.1893 16.5334 11.971 16.2937 12.8852C16.054 13.7994 16.1868 14.7713 16.663 15.5877C17.1562 16.3729 17.9103 16.9593 18.7929 17.2439C19.6076 17.5407 20.4879 17.609 21.3386 17.4414C22.1893 17.2739 22.978 16.8768 23.6192 16.2932C23.7981 16.136 23.9602 15.9606 24.1028 15.7699C24.1136 15.7565 24.1272 15.7457 24.1427 15.7383C24.1582 15.7308 24.1751 15.7269 24.1923 15.7268C24.4934 15.7197 24.7926 15.6763 25.0833 15.5976C25.9109 15.3898 26.6651 14.9577 27.263 14.3488C28.1013 13.4697 28.6693 12.3682 28.8993 11.1754C29.055 10.2049 29.0484 9.30387 28.535 8.42937Z" fill="#5B70B5"/>
<path d="M19.4853 16.5116C19.3263 15.6735 18.5611 14.799 17.8489 14.3816C17.0154 13.9048 16.0274 13.7762 15.0996 14.0239C14.5271 14.2003 14.0003 14.5 13.556 14.9017C13.5397 14.9178 13.5188 14.9283 13.4962 14.9319C13.4736 14.9355 13.4505 14.9318 13.4301 14.9216C13.2545 14.8355 13.079 14.7593 12.9001 14.6897C12.8828 14.683 12.867 14.6728 12.8537 14.6599C12.7908 14.587 12.7278 14.5108 12.6682 14.4346C12.1266 13.661 11.435 13.0042 10.6343 12.5035V12.5035C10.4664 12.0285 10.1909 11.5988 9.82939 11.248C9.15994 10.5809 8.25369 10.2058 7.30858 10.2046C6.37102 10.2418 5.47737 10.6117 4.78777 11.248C4.25543 11.6491 3.79125 12.1335 3.41308 12.6823C2.94409 13.4819 2.78356 14.4253 2.96171 15.3349C3.13986 16.2446 3.64439 17.0577 4.38033 17.6213C5.00287 18.0782 5.7153 18.3977 6.47052 18.5587L6.88789 18.6581L7.08333 18.7939C7.37996 19.2306 7.72316 19.6338 8.10689 19.9963C8.28577 20.1553 8.46795 20.311 8.66008 20.4568C8.68028 20.4724 8.69435 20.4947 8.69983 20.5197C8.8072 21.0434 9.02454 21.5383 9.33747 21.9717C9.6504 22.4051 10.0518 22.7672 10.5151 23.0339C11.1184 23.3727 11.7997 23.5482 12.4916 23.543C13.1836 23.5378 13.8621 23.352 14.4603 23.0041C14.7303 22.8399 14.9823 22.6478 15.2122 22.431L15.5434 22.2654C16.1546 22.1454 16.7406 21.9213 17.2759 21.6029C18.0056 21.1722 18.6178 20.568 19.058 19.844C19.6138 18.8262 19.7664 17.6366 19.4853 16.5116V16.5116Z" fill="#08BCD3"/>
<path d="M14.5199 18.0588C14.0416 17.243 13.2593 16.6503 12.3446 16.4106C11.4299 16.1709 10.4574 16.3038 9.64055 16.7801C8.90186 17.2538 8.16318 18.0124 8.00086 18.9101C7.95118 19.2016 7.90811 19.4964 7.87168 19.7879C7.86965 19.8069 7.8628 19.8251 7.85179 19.8408C7.84078 19.8564 7.82596 19.869 7.80874 19.8773C7.14052 20.1594 6.52288 20.5488 5.98024 21.0301C5.58575 21.3852 5.25815 21.8081 5.01299 22.2789C4.75512 22.7854 4.58488 23.332 4.50949 23.8954L4.52606 23.7596C4.51591 23.8505 4.49014 23.9391 4.44987 24.0213C4.14181 24.8428 4.38362 26.0419 4.81093 26.7706C5.28801 27.5867 6.06947 28.1801 6.9837 28.4204C7.89792 28.6608 8.87017 28.5285 9.68693 28.0526C10.388 27.602 10.9283 26.9411 11.2305 26.1644C11.2358 26.1505 11.2438 26.1378 11.2541 26.127C11.2643 26.1162 11.2766 26.1075 11.2902 26.1015C11.5755 25.9881 11.8523 25.8541 12.1183 25.7007C12.8865 25.2437 13.5358 24.6115 14.013 23.8556C14.6126 22.9083 14.7451 21.8681 14.871 20.7849C15.0941 19.864 14.969 18.8931 14.5199 18.0588V18.0588Z" fill="#009888"/>
<path d="M22.1883 22.5535C21.7747 22.2938 21.3063 22.134 20.8203 22.0864C20.802 22.0848 20.7843 22.0788 20.7688 22.069C20.7532 22.0593 20.7402 22.0459 20.7308 22.0301C20.3913 21.3947 19.8761 20.8704 19.2468 20.5196C18.4353 20.0459 17.5409 20.0128 16.6631 19.9035C16.3318 19.8571 15.9807 19.8306 15.6329 19.7909C15.6147 19.7893 15.5975 19.7823 15.5832 19.771C14.986 19.3162 14.2536 19.0747 13.503 19.0853C12.5953 19.125 11.5983 19.4165 10.9822 20.1287C10.2932 20.8504 9.89563 21.8014 9.86584 22.7986C9.87042 23.806 10.2714 24.7711 10.9822 25.485C11.4972 25.9858 12.1363 26.3403 12.8338 26.5119C13.0823 26.5616 13.344 26.5815 13.5957 26.6179L13.8938 26.6543C13.9205 26.6582 13.9451 26.6712 13.9632 26.6911C13.9813 26.7111 13.9919 26.7367 13.9932 26.7637C13.9932 26.9094 14.0131 27.0552 14.033 27.2042C14.1174 27.8243 14.3398 28.4175 14.6838 28.9403C15.0277 29.4631 15.4845 29.9022 16.0205 30.2252C16.7515 30.6531 17.5758 30.8964 18.422 30.9341H18.5578C18.5805 30.9363 18.6021 30.9443 18.6208 30.9573L18.8129 31.0964C19.1991 31.3572 19.627 31.5499 20.0783 31.6662C22.2281 32.2922 24.3779 30.8347 25.047 28.781C25.8486 26.3297 24.1791 23.8089 22.1883 22.5535Z" fill="#279B47"/>
<path d="M28.2866 31.7158C27.9078 31.0976 27.3672 30.5947 26.7231 30.2617H26.7033L26.6006 30.1722C25.7592 29.5097 24.5435 29.1586 23.4935 29.5362C23.131 29.6514 22.7823 29.8058 22.4533 29.9967C22.354 30.0596 22.2612 30.1258 22.1718 30.1954C22.1509 30.2129 22.1245 30.2225 22.0972 30.2225C22.07 30.2225 22.0436 30.2129 22.0227 30.1954C21.9465 30.1225 21.867 30.0497 21.7842 29.9801C21.7698 29.968 21.7594 29.9518 21.7544 29.9337C21.5168 29.275 21.1355 28.6776 20.6381 28.1847C20.0728 27.6432 19.3938 27.2347 18.6506 26.9889C18.629 26.9819 18.6104 26.9679 18.5976 26.9492C18.498 26.8059 18.3872 26.6708 18.2663 26.545C17.5974 25.8771 16.6908 25.502 15.7455 25.502C14.8002 25.502 13.8936 25.8771 13.2247 26.545C12.5636 27.2185 12.1895 28.1222 12.1813 29.0658C12.199 29.8506 12.4133 30.6184 12.8045 31.2989C13.1957 31.9795 13.7513 32.5511 14.4205 32.9613C14.6187 33.0925 14.8296 33.2035 15.0499 33.2926C15.0635 33.2986 15.0758 33.3073 15.086 33.3181C15.0962 33.3289 15.1042 33.3416 15.1095 33.3555C15.365 33.939 15.7569 34.4525 16.2523 34.8528C16.2652 34.8649 16.2753 34.8796 16.2821 34.8958C16.4786 35.3886 16.7689 35.8386 17.1368 36.2208C17.478 36.5606 17.8789 36.8345 18.3193 37.0291C18.3354 37.0363 18.3491 37.0477 18.3591 37.0622C18.7395 37.5897 19.2174 38.0394 19.7669 38.3872C20.8666 39.0497 22.1751 38.9503 23.4106 38.9404C24.1094 38.9569 24.8044 38.833 25.4545 38.576C25.9555 38.3709 26.4042 38.0562 26.7676 37.6549C27.131 37.2537 27.3999 36.7761 27.5546 36.2573C27.5592 36.238 27.5696 36.2207 27.5844 36.2076C28.1019 35.749 28.472 35.1473 28.6477 34.4785C28.774 34.0171 28.8072 33.5351 28.7452 33.0608C28.6832 32.5865 28.5273 32.1293 28.2866 31.7158V31.7158Z" fill="#8AC249"/>
<path d="M18.8427 30.2716C18.3193 29.5595 17.7927 28.8473 17.2627 28.1351C16.5405 27.1645 15.8515 26.3828 14.6127 26.0184C13.9921 25.8536 13.3469 25.802 12.708 25.866C11.7112 25.8879 10.7237 26.0622 9.77973 26.3828C9.29259 26.5654 8.82442 26.795 8.38185 27.0685C8.36748 27.0757 8.35159 27.0795 8.33548 27.0795C8.31937 27.0795 8.30348 27.0757 8.2891 27.0685C7.4154 26.7998 6.48812 26.7554 5.59273 26.9393C3.69136 27.2904 2.28023 28.8572 1.69392 30.6327C1.44284 31.5442 1.5638 32.518 2.03025 33.3403C2.49669 34.1627 3.27046 34.7662 4.18161 35.0184C4.65998 35.1349 5.15673 35.155 5.64295 35.0776C6.12917 35.0003 6.59515 34.827 7.01379 34.5679C7.02954 34.5614 7.04642 34.558 7.06348 34.558C7.08054 34.558 7.09742 34.5614 7.11317 34.5679C7.97475 34.8795 8.91105 34.92 9.79629 34.6839C10.6019 34.4509 11.3319 34.0099 11.913 33.4053L12.0587 33.2529C12.0693 33.2398 12.0826 33.2292 12.0978 33.2219C12.113 33.2146 12.1297 33.2108 12.1465 33.2108C12.1634 33.2108 12.18 33.2146 12.1952 33.2219C12.2104 33.2292 12.2237 33.2398 12.2343 33.2529L12.6881 33.869C13.2578 34.6408 13.8574 35.2437 14.818 35.5253C15.7484 35.7619 16.7344 35.6239 17.5641 35.141C18.3711 34.6723 18.9649 33.9087 19.2203 33.0111C19.4025 32.1399 19.4025 31.0269 18.8427 30.2716Z" fill="#CEDD37"/>
<path d="M8.84546 26.8103C8.59395 25.8985 7.99068 25.124 7.16827 24.6569C6.34586 24.1898 5.37162 24.0683 4.45971 24.3193C3.92329 24.4848 3.43128 24.7695 3.02053 25.1521C2.60979 25.5347 2.29097 26.0054 2.08797 26.5287C2.08184 26.549 2.06898 26.5665 2.05153 26.5784C1.74678 26.7937 1.45859 27.0389 1.18034 27.274C0.568903 27.7846 0.0364418 28.383 -0.399719 29.0495C-0.958714 30.0118 -1.21712 31.1193 -1.14172 32.2295C-1.11072 32.786 -1.03988 33.3395 -0.929719 33.8858C-0.929719 33.8858 -0.929719 33.9057 -0.929719 33.9123C-0.99302 34.3939 -0.96265 34.8832 -0.840281 35.3532C-0.588403 36.2469 -0.00251326 37.0095 0.796092 37.4832C1.61729 37.9405 2.58347 38.0629 3.49275 37.8246C4.40203 37.5863 5.18405 37.0059 5.6754 36.2045C6.3379 35.2108 6.36771 33.9752 6.14577 32.8357C6.1259 32.743 6.10602 32.6502 6.08284 32.5575C6.07634 32.5332 6.07838 32.5075 6.08864 32.4845C6.0989 32.4616 6.11673 32.4429 6.13915 32.4316L6.4969 32.2428C7.08253 31.9311 7.59165 31.4932 7.98752 30.9609C8.44027 30.3817 8.75323 29.7058 8.90204 28.9859C9.05085 28.266 9.03148 27.5215 8.84546 26.8103V26.8103Z" fill="#8AC249"/>
<path d="M10.0082 9.44619C9.79746 8.74723 9.41376 8.11274 8.89264 7.60146C8.37152 7.09019 7.72983 6.71865 7.02698 6.52125C5.79522 6.19683 4.48632 6.35068 3.36336 6.95188C2.78214 7.31436 2.29153 7.80497 1.92905 8.38619C1.91937 8.39881 1.9069 8.40902 1.89261 8.416C1.71226 8.51626 1.54437 8.63746 1.39242 8.77706V8.77706C1.00944 9.02573 0.695973 9.36769 0.481487 9.77081C0.243047 10.1753 0.0868702 10.6229 0.021929 11.0879C-0.0430122 11.5529 -0.0154385 12.0261 0.103066 12.4805C0.221571 12.9348 0.428671 13.3612 0.71247 13.7353C0.996269 14.1093 1.35117 14.4236 1.7568 14.6601C2.54186 15.0741 3.64161 15.3789 4.50286 15.0178C4.6718 14.9482 4.83411 14.8787 4.99311 14.8058C5.02211 14.796 5.05355 14.796 5.08255 14.8058C5.22738 14.8656 5.37697 14.9133 5.52973 14.9482C6.44092 15.1789 7.40598 15.0484 8.22327 14.5842C9.04055 14.12 9.64685 13.358 9.91548 12.4572C10.2488 11.4858 10.2811 10.4363 10.0082 9.44619Z" fill="#66499D"/>
<path d="M20.9243 23.3728C21.3287 23.1369 21.6827 22.8236 21.9659 22.4507C22.2491 22.0779 22.4561 21.6529 22.5748 21.2C22.6936 20.7471 22.7219 20.2752 22.658 19.8113C22.5942 19.3475 22.4396 18.9008 22.2029 18.4968C21.976 18.1392 21.6917 17.8213 21.3615 17.556C21.3481 17.5422 21.3384 17.5253 21.3332 17.5068C21.328 17.4883 21.3275 17.4688 21.3317 17.45C21.4316 16.6295 21.2569 15.7989 20.8348 15.0882C20.232 14.0945 19.3541 13.6506 18.377 13.2597C18.3643 13.2564 18.3528 13.2495 18.3438 13.2398L18.2411 13.1537C17.4163 12.4912 16.5849 11.991 15.515 11.9248C14.7852 11.8795 14.0579 12.0454 13.42 12.4025C12.782 12.7597 12.2604 13.293 11.9176 13.9388C11.7233 14.3115 11.5944 14.7149 11.5366 15.1313C11.4723 15.3466 11.4355 15.5692 11.4273 15.7938C11.3235 16.2628 11.3464 16.751 11.4936 17.2082C11.7479 18.1007 12.3332 18.8625 13.13 19.3382C13.4707 19.5195 13.8338 19.6553 14.2098 19.7423C14.2288 19.7472 14.2463 19.7567 14.2608 19.77C14.2752 19.7833 14.2862 19.7999 14.2926 19.8185L14.3788 20.0802C14.6198 20.9605 15.0908 21.7608 15.7435 22.3989C16.4566 23.0061 17.2846 23.4635 18.1782 23.7438C19.013 24.0353 20.1889 23.8067 20.9243 23.3728Z" fill="#3BA4DC"/>
<path d="M24.7931 9.92098C25.297 9.54197 25.6857 9.03052 25.9161 8.4436C25.9246 8.42235 25.9392 8.40408 25.958 8.39112C25.9769 8.37815 25.9992 8.37105 26.0221 8.37073C26.6247 8.37836 27.2179 8.22145 27.7379 7.91692C27.8763 7.83398 28.009 7.74214 28.1354 7.64198C28.1547 7.62503 28.1794 7.61561 28.205 7.61548C28.828 7.61487 29.44 7.45159 29.9805 7.14179C30.7785 6.66672 31.365 5.90485 31.6202 5.01186C31.7459 4.55363 31.7796 4.07503 31.7194 3.6037C31.6591 3.13237 31.506 2.67765 31.2691 2.2658C30.7898 1.46735 30.0248 0.881135 29.1292 0.626109C28.2282 0.400859 27.3305 0.17561 26.4295 -0.0363902C24.919 -0.417327 23.3025 -1.03014 21.792 -0.400765C21.2903 -0.193724 20.837 0.115112 20.4607 0.506237C20.0844 0.897362 19.7933 1.36227 19.6058 1.87161C19.5983 1.89296 19.5844 1.91148 19.566 1.92461C19.3901 2.047 19.2269 2.18684 19.0791 2.34198C17.8634 3.59742 17.6713 5.46235 18.2808 7.04904C18.5519 7.8563 18.9772 8.60328 19.5329 9.24854C20.1177 9.87827 20.8633 10.3364 21.6893 10.5735C22.221 10.7228 22.7808 10.7414 23.3212 10.6278C23.8616 10.5141 24.3666 10.2717 24.7931 9.92098Z" fill="#E32027"/>
<path d="M26.9034 19.9911C27.6439 19.9744 28.3617 19.7325 28.9612 19.2975C29.5607 18.8625 30.0134 18.2552 30.259 17.5564L30.259 17.5366C30.6822 16.8454 30.8959 16.0463 30.8741 15.2361C30.8523 14.4259 30.5961 13.6394 30.1364 12.9719C29.8915 12.6163 29.6046 12.2915 29.2818 12.0047C29.2653 11.9895 29.2534 11.9699 29.2476 11.9482C29.2417 11.9265 29.2421 11.9036 29.2487 11.8821C29.2747 11.8085 29.2957 11.7333 29.3116 11.6569C29.4356 11.1981 29.4679 10.7194 29.4065 10.2482C29.3451 9.77695 29.1913 9.32248 28.9539 8.91082C28.4563 8.13175 27.7015 7.5516 26.8206 7.27113C25.1014 6.67819 23.1404 7.57257 22.1831 9.04994C22.1737 9.06694 22.1584 9.0799 22.1401 9.08638C21.6936 9.31331 21.2969 9.62709 20.9732 10.0093C20.6496 10.3916 20.4055 10.8346 20.2553 11.3124C19.7186 12.9686 20.5501 14.4559 21.2159 15.9035L21.7426 17.0463C21.9817 17.5554 22.3277 18.0071 22.7569 18.3706C23.1862 18.7342 23.6887 19.001 24.2303 19.1531C24.3847 19.1967 24.5418 19.2299 24.7006 19.2524C24.7201 19.2553 24.7384 19.2633 24.7536 19.2756C25.362 19.7627 26.1245 20.0165 26.9034 19.9911V19.9911Z" fill="#E92064"/>
<path d="M32.4847 25.7311C33.2833 25.2574 33.8692 24.4948 34.1211 23.6011C34.3705 22.676 34.243 21.6897 33.7666 20.8584V20.8584L33.4155 20.4046C33.4028 20.3867 33.396 20.3652 33.396 20.3433C33.396 20.3213 33.4028 20.2999 33.4155 20.282V20.282C33.4214 20.2696 33.4297 20.2586 33.44 20.2495C33.4502 20.2404 33.4622 20.2334 33.4751 20.229L33.5778 20.1893C34.4722 19.8315 35.2076 19.4108 35.7111 18.533C36.1797 17.7 36.3022 16.7161 36.0523 15.7936C35.8032 14.8985 35.2166 14.1349 34.4159 13.6636C33.6209 13.2429 32.541 12.9548 31.6665 13.3026C30.6728 13.6968 29.5995 13.9187 28.6521 14.399C28.1689 14.6497 27.741 14.995 27.3939 15.4144C27.0467 15.8338 26.7875 16.3187 26.6315 16.8403V16.8403C26.1527 17.2759 25.808 17.839 25.6378 18.4634C25.3065 19.646 25.6113 20.5371 26.0187 21.5706C26.3003 22.2993 26.5619 23.0579 26.9164 23.7436C27.1537 24.1808 27.4502 24.5832 27.7975 24.9394C28.3772 25.5588 28.9734 25.7741 29.7353 26.0921C30.4972 26.4101 31.7791 26.1418 32.4847 25.7311Z" fill="#904098"/>
<path d="M27.8272 23.767C27.9568 23.3467 28.0172 22.9082 28.006 22.4685C28.0049 22.4432 28.0132 22.4185 28.0292 22.3989C28.5562 21.7607 28.8423 20.9576 28.8375 20.1299C28.8186 19.0984 28.4118 18.112 27.698 17.3672C27.4661 17.1056 27.221 16.8571 26.9858 16.6021C25.7072 15.2406 23.2162 15.2174 21.9442 16.6021C21.6012 16.97 21.3363 17.4036 21.1655 17.8767C20.9947 18.3498 20.9215 18.8526 20.9504 19.3547L20.9504 19.3978C20.9107 19.5137 20.8775 19.6297 20.8477 19.7489C20.6911 20.5597 20.7024 21.3939 20.8808 22.2002C20.8843 22.2121 20.8843 22.2247 20.8808 22.2366C20.5794 23.9392 21.752 25.8804 23.4613 26.258C24.3697 26.4828 25.3297 26.3496 26.1425 25.8858C26.9553 25.4221 27.5585 24.6634 27.8272 23.767V23.767Z" fill="#66499D"/>
<path d="M25.4323 30.9853C26.0316 30.9152 26.6064 30.7066 27.1112 30.3761C27.616 30.0455 28.0369 29.602 28.3407 29.0806C28.4505 28.8788 28.5436 28.6683 28.619 28.4513C28.6222 28.4376 28.6291 28.425 28.6388 28.4148C28.7028 28.3468 28.7625 28.2749 28.8177 28.1995C29.4736 27.3879 29.6558 26.5963 29.7419 25.5727C29.8031 24.6779 29.6987 23.7795 29.4338 22.9227C29.1704 22.0366 28.5872 21.2799 27.7975 20.7994C26.9653 20.3191 25.9772 20.187 25.0481 20.4317C24.1508 20.6878 23.3874 21.2814 22.9182 22.0879C22.8111 22.2918 22.7192 22.5033 22.6432 22.7206C22.637 22.7386 22.6263 22.7547 22.6121 22.7674C22.598 22.7801 22.5808 22.789 22.5623 22.7933C22.5438 22.7976 22.5245 22.7971 22.5062 22.7919C22.4879 22.7868 22.4712 22.7771 22.4577 22.7637L22.4213 22.7273C21.7446 22.071 20.843 21.6978 19.9005 21.6838C18.9568 21.6921 18.0531 22.0661 17.3797 22.7273C16.7137 23.3975 16.3388 24.3032 16.3362 25.2481C16.3465 26.1913 16.7203 27.0943 17.3797 27.7689C18.0683 28.4435 18.8292 29.04 19.6487 29.5477C20.1598 29.8732 20.7186 30.1169 21.305 30.2698C21.6996 30.3634 22.1061 30.3969 22.5107 30.3692L22.5737 30.4089C23.4321 30.9235 24.4415 31.1271 25.4323 30.9853V30.9853Z" fill="#4554A5"/>
<path d="M19.8872 31.3096C20.7029 30.8314 21.2956 30.0491 21.5353 29.1343C21.775 28.2196 21.6421 27.2472 21.1658 26.4303C20.8155 25.8723 20.3375 25.4057 19.7712 25.0689C19.7566 25.0605 19.744 25.0491 19.7343 25.0353C19.7246 25.0216 19.718 25.0059 19.7149 24.9894L19.6752 24.7376C19.5642 24.1734 19.3387 23.6379 19.0127 23.1642C18.7555 22.7714 18.4457 22.4159 18.0918 22.1075C18.0717 22.0909 18.0586 22.0672 18.0553 22.0413C17.9886 21.5755 17.8358 21.1262 17.6048 20.7163C17.1272 19.9007 16.3455 19.3081 15.4313 19.0683C14.5172 18.8286 13.5452 18.9614 12.7289 19.4376C11.9436 19.9309 11.3572 20.685 11.0726 21.5676C10.7758 22.3822 10.7075 23.2626 10.8751 24.1133C11.0427 24.964 11.4397 25.7526 12.0233 26.3939C12.1805 26.5728 12.3559 26.7349 12.5467 26.8775C12.56 26.8883 12.5708 26.9019 12.5783 26.9174C12.5857 26.9328 12.5896 26.9498 12.5897 26.9669C12.5968 27.2681 12.6402 27.5672 12.7189 27.858C12.9267 28.6856 13.3589 29.4398 13.9677 30.0376C14.8468 30.876 15.9483 31.444 17.1411 31.674C18.1117 31.8297 19.0127 31.8231 19.8872 31.3096Z" fill="#5B70B5"/>
<path d="M11.8049 22.26C12.643 22.101 13.5175 21.3358 13.9349 20.6236C14.4118 19.7901 14.5403 18.802 14.2926 17.8742C14.1162 17.3018 13.8166 16.7749 13.4148 16.3306C13.3988 16.3143 13.3882 16.2934 13.3846 16.2709C13.3811 16.2483 13.3847 16.2252 13.3949 16.2047C13.4811 16.0292 13.5573 15.8536 13.6268 15.6747C13.6336 15.6574 13.6437 15.6417 13.6566 15.6284C13.7295 15.5654 13.8057 15.5025 13.8819 15.4429C14.6555 14.9013 15.3123 14.2096 15.8131 13.409V13.409C16.288 13.2411 16.7177 12.9656 17.0685 12.604C17.7356 11.9346 18.1108 11.0284 18.1119 10.0832C18.0747 9.14568 17.7048 8.25203 17.0685 7.56243C16.6674 7.03009 16.1831 6.56591 15.6342 6.18774C14.8347 5.71875 13.8913 5.55822 12.9816 5.73637C12.072 5.91451 11.2588 6.41905 10.6953 7.15499C10.2384 7.77753 9.91886 8.48996 9.75782 9.24518L9.65845 9.66255L9.52263 9.85799C9.08593 10.1546 8.68275 10.4978 8.3202 10.8816C8.1612 11.0604 8.00551 11.2426 7.85976 11.4347C7.84408 11.4549 7.82181 11.469 7.79682 11.4745C7.27314 11.5819 6.77822 11.7992 6.3448 12.1121C5.91139 12.4251 5.54935 12.8264 5.28264 13.2897C4.9438 13.893 4.76832 14.5744 4.77354 15.2663C4.77877 15.9582 4.96453 16.6368 5.31245 17.2349C5.47665 17.5049 5.66872 17.7569 5.88551 17.9869L6.05114 18.3181C6.17109 18.9293 6.39518 19.5153 6.71364 20.0505C7.14433 20.7803 7.74852 21.3925 8.47257 21.8327C9.4903 22.3885 10.6799 22.541 11.8049 22.26V22.26Z" fill="#08BCD3"/>
<path d="M10.258 17.2948C11.0737 16.8165 11.6665 16.0342 11.9062 15.1195C12.1459 14.2048 12.013 13.2323 11.5366 12.4155C11.0629 11.6768 10.3044 10.9381 9.4067 10.7758C9.1152 10.7261 8.82038 10.683 8.52888 10.6466C8.50986 10.6445 8.49166 10.6377 8.47601 10.6267C8.46037 10.6157 8.44778 10.6009 8.43945 10.5836C8.15736 9.91542 7.76798 9.29778 7.2867 8.75514C6.93161 8.36066 6.50864 8.03305 6.03789 7.78789C5.53134 7.53002 4.98478 7.35978 4.42139 7.28439L4.5572 7.30096C4.46624 7.29081 4.37771 7.26504 4.29551 7.22477C3.47401 6.91671 2.27489 7.15852 1.54614 7.58583C0.730066 8.06291 0.136697 8.84437 -0.103661 9.7586C-0.344018 10.6728 -0.21171 11.6451 0.264206 12.4618C0.714755 13.1629 1.37572 13.7032 2.15233 14.0055C2.16624 14.0107 2.17896 14.0187 2.18976 14.029C2.20057 14.0392 2.20923 14.0515 2.21527 14.0651C2.32869 14.3504 2.46265 14.6272 2.61608 14.8932C3.07307 15.6614 3.70531 16.3107 4.46114 16.7879C5.40851 17.3875 6.44864 17.52 7.53182 17.6459C8.45276 17.869 9.42366 17.7439 10.258 17.2948V17.2948Z" fill="#009888"/>
<path d="M5.76293 24.9631C6.02256 24.5495 6.18246 24.0811 6.22999 23.5951C6.23162 23.5767 6.23757 23.5591 6.24736 23.5435C6.25715 23.528 6.2705 23.515 6.2863 23.5056C6.92169 23.166 7.44603 22.6509 7.7968 22.0216C8.27049 21.2101 8.30361 20.3157 8.41293 19.4379C8.4593 19.1066 8.4858 18.7555 8.52555 18.4077C8.52715 18.3895 8.53406 18.3722 8.54543 18.358C9.00024 17.7608 9.24167 17.0283 9.23111 16.2777C9.19136 15.3701 8.89986 14.3731 8.18768 13.7569C7.46602 13.068 6.51505 12.6704 5.5178 12.6406C4.51042 12.6452 3.54533 13.0462 2.83137 13.7569C2.33059 14.2719 1.97614 14.9111 1.8045 15.6086C1.75481 15.8571 1.73493 16.1187 1.6985 16.3705L1.66206 16.6686C1.65824 16.6953 1.64523 16.7198 1.62528 16.738C1.60533 16.7561 1.57968 16.7667 1.55275 16.768C1.407 16.768 1.26124 16.7879 1.11218 16.8077C0.492111 16.8922 -0.10114 17.1146 -0.623942 17.4585C-1.14674 17.8025 -1.5858 18.2593 -1.90882 18.7952C-2.33668 19.5263 -2.57999 20.3506 -2.61769 21.1968L-2.61769 21.3326C-2.61989 21.3552 -2.62788 21.3769 -2.64088 21.3956L-2.78 21.5877C-3.04077 21.9739 -3.23347 22.4018 -3.34975 22.8531C-3.97581 25.0029 -2.51832 27.1527 -0.464567 27.8218C1.98668 28.6234 4.50749 26.9539 5.76293 24.9631Z" fill="#279B47"/>
<path d="M-3.39944 31.0614C-2.78118 30.6826 -2.27831 30.142 -1.94525 29.4979L-1.94525 29.478L-1.85581 29.3754C-1.19331 28.534 -0.842188 27.3183 -1.21981 26.2682C-1.335 25.9058 -1.48939 25.557 -1.68025 25.2281C-1.74319 25.1287 -1.80944 25.036 -1.879 24.9465C-1.89652 24.9257 -1.90613 24.8993 -1.90613 24.872C-1.90613 24.8448 -1.89652 24.8184 -1.879 24.7975C-1.80612 24.7213 -1.73325 24.6418 -1.66369 24.559C-1.65161 24.5446 -1.63543 24.5342 -1.61731 24.5292C-0.958634 24.2916 -0.361162 23.9103 0.131687 23.4129C0.67321 22.8476 1.08174 22.1686 1.3275 21.4254C1.33453 21.4038 1.34851 21.3852 1.36725 21.3724C1.51047 21.2728 1.6456 21.162 1.77137 21.0411C2.4393 20.3722 2.81445 19.4656 2.81445 18.5203C2.81445 17.575 2.4393 16.6684 1.77137 15.9995C1.09793 15.3384 0.194251 14.9643 -0.749438 14.9561C-1.53421 14.9738 -2.30199 15.1881 -2.98254 15.5793C-3.66308 15.9705 -4.23465 16.5261 -4.64493 17.1953C-4.77608 17.3935 -4.88705 17.6044 -4.97618 17.8247C-4.98221 17.8383 -4.99088 17.8506 -5.00168 17.8608C-5.01249 17.871 -5.02521 17.879 -5.03912 17.8843C-5.62255 18.1398 -6.13605 18.5317 -6.53637 19.0271C-6.54847 19.04 -6.56315 19.0501 -6.57943 19.0569C-7.07222 19.2534 -7.5222 19.5437 -7.90443 19.9115C-8.24416 20.2528 -8.51814 20.6537 -8.71268 21.0941C-8.71988 21.1101 -8.73134 21.1239 -8.74581 21.1339C-9.27328 21.5143 -9.72304 21.9921 -10.0708 22.5417C-10.7333 23.6414 -10.6339 24.9499 -10.624 26.1854C-10.6405 26.8842 -10.5166 27.5792 -10.2596 28.2292C-10.0545 28.7303 -9.7398 29.179 -9.33854 29.5424C-8.93728 29.9058 -8.45969 30.1747 -7.94087 30.3294C-7.92163 30.3339 -7.90428 30.3444 -7.89118 30.3592C-7.43258 30.8767 -6.83086 31.2467 -6.16206 31.4225C-5.70068 31.5488 -5.21874 31.582 -4.74441 31.52C-4.27007 31.458 -3.81285 31.3021 -3.39944 31.0614V31.0614Z" fill="#8AC249"/>
<path d="M-1.95511 21.6177C-1.24293 21.0944 -0.530739 20.5677 0.181448 20.0377C1.15201 19.3156 1.93376 18.6266 2.29813 17.3877C2.46296 16.7671 2.51458 16.1219 2.45051 15.483C2.42864 14.4863 2.25438 13.4988 1.93376 12.5548C1.75117 12.0676 1.52153 11.5994 1.24807 11.1569C1.2408 11.1425 1.237 11.1266 1.237 11.1105C1.237 11.0944 1.2408 11.0785 1.24807 11.0641C1.51675 10.1904 1.56118 9.26314 1.37726 8.36776C1.02614 6.46638 -0.540676 5.05526 -2.31617 4.46895C-3.22763 4.21786 -4.20148 4.33883 -5.02381 4.80527C-5.84614 5.27171 -6.4497 6.04549 -6.70192 6.95663C-6.81833 7.435 -6.83846 7.93175 -6.76111 8.41797C-6.68377 8.90419 -6.51051 9.37018 -6.25142 9.78882C-6.24486 9.80456 -6.24148 9.82145 -6.24148 9.8385C-6.24148 9.85556 -6.24486 9.87245 -6.25142 9.88819C-6.563 10.7498 -6.60346 11.6861 -6.36736 12.5713C-6.13435 13.3769 -5.69336 14.1069 -5.08874 14.688L-4.93636 14.8337C-4.92323 14.8443 -4.91263 14.8577 -4.90535 14.8729C-4.89807 14.8881 -4.89429 14.9047 -4.89429 14.9215C-4.89429 14.9384 -4.89807 14.955 -4.90535 14.9702C-4.91263 14.9854 -4.92323 14.9988 -4.93636 15.0093L-5.55249 15.4631C-6.3243 16.0329 -6.92717 16.6324 -7.20873 17.5931C-7.44537 18.5234 -7.30739 19.5095 -6.82448 20.3391C-6.35574 21.1462 -5.5922 21.7399 -4.69455 21.9954C-3.82336 22.1776 -2.71036 22.1776 -1.95511 21.6177Z" fill="#CEDD37"/>
<path d="M1.50623 11.6201C2.41799 11.3686 3.19256 10.7653 3.65967 9.94293C4.12678 9.12052 4.24819 8.14628 3.99723 7.23437C3.83177 6.69795 3.54706 6.20594 3.16443 5.79519C2.78179 5.38445 2.31116 5.06563 1.78779 4.86262C1.76756 4.85649 1.75003 4.84364 1.73811 4.82619C1.52279 4.52144 1.27767 4.23325 1.04248 3.955C0.531887 3.34356 -0.066435 2.8111 -0.733015 2.37494C-1.69527 1.81594 -2.80273 1.55754 -3.91301 1.63294C-4.46945 1.66393 -5.02295 1.73478 -5.56926 1.84494C-5.56926 1.84494 -5.58914 1.84494 -5.59576 1.84494C-6.07735 1.78164 -6.56663 1.81201 -7.0367 1.93438C-7.93038 2.18626 -8.69298 2.77214 -9.16663 3.57075C-9.62402 4.39195 -9.74635 5.35813 -9.50807 6.26741C-9.2698 7.17669 -8.68934 7.95871 -7.88801 8.45006C-6.89426 9.11256 -5.6587 9.14237 -4.5192 8.92043C-4.42645 8.90056 -4.3337 8.88068 -4.24095 8.85749C-4.21669 8.85099 -4.19094 8.85304 -4.16801 8.8633C-4.14509 8.87355 -4.12639 8.89139 -4.11507 8.91381L-3.92626 9.27156C-3.61454 9.85719 -3.1767 10.3663 -2.64432 10.7622C-2.06516 11.2149 -1.38932 11.5279 -0.669413 11.6767C0.0504938 11.8255 0.795034 11.8061 1.50623 11.6201V11.6201Z" fill="#8AC249"/>
<path d="M18.8703 12.7828C19.5693 12.572 20.2038 12.1883 20.7151 11.6672C21.2263 11.1461 21.5979 10.5044 21.7953 9.80152C22.1197 8.56976 21.9658 7.26086 21.3647 6.1379C21.0022 5.55668 20.5116 5.06607 19.9303 4.70358C19.9177 4.69391 19.9075 4.68144 19.9005 4.66715C19.8003 4.4868 19.6791 4.31891 19.5395 4.16696V4.16696C19.2908 3.78398 18.9488 3.47051 18.5457 3.25602C18.1412 3.01758 17.6937 2.86141 17.2286 2.79646C16.7636 2.73152 16.2904 2.7591 15.8361 2.8776C15.3817 2.99611 14.9553 3.20321 14.5813 3.48701C14.2072 3.77081 13.8929 4.12571 13.6565 4.53133C13.2424 5.3164 12.9377 6.41614 13.2987 7.27739C13.3683 7.44633 13.4378 7.60864 13.5107 7.76764C13.5206 7.79664 13.5206 7.82808 13.5107 7.85708C13.4509 8.00192 13.4032 8.1515 13.3683 8.30427C13.1377 9.21546 13.2681 10.1805 13.7323 10.9978C14.1965 11.8151 14.9586 12.4214 15.8593 12.69C16.8307 13.0233 17.8802 13.0557 18.8703 12.7828Z" fill="#66499D"/>
</g>
<defs>
<linearGradient id="paint0_linear_31_6" x1="12.5" y1="38.5" x2="23.5" y2="31" gradientUnits="userSpaceOnUse">
<stop/>
<stop offset="1" stop-opacity="0"/>
</linearGradient>
</defs>
</svg>
